<?xml version="1.0" encoding="UTF-8"?>
<svg version="1.1" xmlns="http://www.w3.org/2000/svg" width="590" height="590">
<path d="M0 0 C2.86919434 0.00536389 5.73823222 0.00001744 8.60742188 -0.00634766 C24.64551538 -0.01515183 40.08635964 0.58868098 55.87304688 3.75537109 C56.53636017 3.88664398 57.19967346 4.01791687 57.88308716 4.15316772 C96.30135668 11.79676385 133.36402515 26.14226128 165.87304688 48.13037109 C167.29304808 49.06743594 168.71361501 50.00364411 170.13476562 50.93896484 C181.82473254 58.71488646 192.22773392 67.63077774 202.59960938 77.07958984 C204.72068337 78.99292979 206.88279413 80.84470162 209.06054688 82.69287109 C212.2911215 85.51239845 215.08109884 88.52204484 217.84570312 91.79443359 C219.84490532 94.09794595 221.92761514 96.30582142 224.03076172 98.51416016 C231.33459577 106.23062703 237.72535842 114.47276814 243.87304688 123.13037109 C244.30327148 123.73574707 244.73349609 124.34112305 245.17675781 124.96484375 C269.33161701 159.31150732 285.82328573 198.52557873 293.62304688 239.75537109 C293.92130371 241.32617432 293.92130371 241.32617432 294.22558594 242.92871094 C297.31225015 260.15949768 298.25303538 277.21262675 298.18554688 294.69287109 C298.18339172 295.70194519 298.18123657 296.71101929 298.17901611 297.75067139 C298.12551041 313.39938909 297.61048888 328.68625767 294.87304688 344.13037109 C294.69032227 345.2014209 294.50759766 346.2724707 294.31933594 347.37597656 C285.71275788 396.2243133 264.38992262 441.22387241 233.87304688 480.13037109 C233.22190918 480.96157471 233.22190918 480.96157471 232.55761719 481.80957031 C225.58367892 490.5819377 217.70174591 498.50508598 209.81054688 506.44287109 C209.30366333 506.9551123 208.79677979 507.46735352 208.27453613 507.99511719 C201.48287586 514.8411371 194.48550446 521.18671267 186.87304688 527.13037109 C186.10742432 527.72970459 185.34180176 528.32903809 184.55297852 528.9465332 C132.44893634 569.15557006 69.42327737 590.33960949 3.74804688 590.38037109 C2.76983978 590.38104584 1.79163269 590.38172058 0.78378296 590.38241577 C-14.72380179 590.36545824 -29.8082327 589.73956136 -45.12695312 587.13037109 C-46.64796631 586.8809375 -46.64796631 586.8809375 -48.19970703 586.62646484 C-87.84212135 579.95660856 -126.88513632 564.80123163 -160.12695312 542.13037109 C-160.87976563 541.61941895 -161.63257813 541.1084668 -162.40820312 540.58203125 C-186.98372583 523.80734334 -211.27018309 503.08847042 -229.12695312 479.13037109 C-230.19834768 477.73697272 -231.26998514 476.3437611 -232.34179688 474.95068359 C-261.60736979 436.49830067 -280.89609274 391.72899007 -289.12695312 344.13037109 C-289.29066406 343.23318359 -289.454375 342.33599609 -289.62304688 341.41162109 C-294.97822686 310.96233326 -294.54453792 276.53070421 -289.12695312 246.13037109 C-288.94422852 245.06077148 -288.76150391 243.99117187 -288.57324219 242.88916016 C-283.85299138 216.09456734 -275.33166832 189.47105742 -263.12695312 165.13037109 C-262.54977539 163.96175537 -262.54977539 163.96175537 -261.9609375 162.76953125 C-248.26962471 135.22444738 -230.3537657 109.49679092 -208.12695312 88.13037109 C-205.6036962 85.6235256 -203.09921653 83.10185684 -200.61914062 80.55224609 C-194.45971819 74.26411931 -188.08480912 68.54420848 -181.12695312 63.13037109 C-180.25039062 62.43685547 -179.37382812 61.74333984 -178.47070312 61.02880859 C-139.63993337 31.03312971 -95.3537625 12.81430045 -47.43945312 3.25537109 C-45.93729248 2.95034668 -45.93729248 2.95034668 -44.40478516 2.63916016 C-29.73715719 -0.13703185 -14.8716134 -0.03299163 0 0 Z " fill="#FEFEFE" transform="translate(292.126953125,-0.13037109375)"/>
<path d="M0 0 C2.86919434 0.00536389 5.73823222 0.00001744 8.60742188 -0.00634766 C24.64551538 -0.01515183 40.08635964 0.58868098 55.87304688 3.75537109 C56.53636017 3.88664398 57.19967346 4.01791687 57.88308716 4.15316772 C96.30135668 11.79676385 133.36402515 26.14226128 165.87304688 48.13037109 C167.29304808 49.06743594 168.71361501 50.00364411 170.13476562 50.93896484 C181.82473254 58.71488646 192.22773392 67.63077774 202.59960938 77.07958984 C204.72068337 78.99292979 206.88279413 80.84470162 209.06054688 82.69287109 C212.2911215 85.51239845 215.08109884 88.52204484 217.84570312 91.79443359 C219.84490532 94.09794595 221.92761514 96.30582142 224.03076172 98.51416016 C231.33459577 106.23062703 237.72535842 114.47276814 243.87304688 123.13037109 C244.30327148 123.73574707 244.73349609 124.34112305 245.17675781 124.96484375 C269.33161701 159.31150732 285.82328573 198.52557873 293.62304688 239.75537109 C293.92130371 241.32617432 293.92130371 241.32617432 294.22558594 242.92871094 C297.31225015 260.15949768 298.25303538 277.21262675 298.18554688 294.69287109 C298.18339172 295.70194519 298.18123657 296.71101929 298.17901611 297.75067139 C298.12551041 313.39938909 297.61048888 328.68625767 294.87304688 344.13037109 C294.69032227 345.2014209 294.50759766 346.2724707 294.31933594 347.37597656 C285.71275788 396.2243133 264.38992262 441.22387241 233.87304688 480.13037109 C233.22190918 480.96157471 233.22190918 480.96157471 232.55761719 481.80957031 C225.58367892 490.5819377 217.70174591 498.50508598 209.81054688 506.44287109 C209.30366333 506.9551123 208.79677979 507.46735352 208.27453613 507.99511719 C201.48287586 514.8411371 194.48550446 521.18671267 186.87304688 527.13037109 C186.10742432 527.72970459 185.34180176 528.32903809 184.55297852 528.9465332 C132.44893634 569.15557006 69.42327737 590.33960949 3.74804688 590.38037109 C2.76983978 590.38104584 1.79163269 590.38172058 0.78378296 590.38241577 C-14.72380179 590.36545824 -29.8082327 589.73956136 -45.12695312 587.13037109 C-46.64796631 586.8809375 -46.64796631 586.8809375 -48.19970703 586.62646484 C-87.84212135 579.95660856 -126.88513632 564.80123163 -160.12695312 542.13037109 C-160.87976563 541.61941895 -161.63257813 541.1084668 -162.40820312 540.58203125 C-186.98372583 523.80734334 -211.27018309 503.08847042 -229.12695312 479.13037109 C-230.19834768 477.73697272 -231.26998514 476.3437611 -232.34179688 474.95068359 C-261.60736979 436.49830067 -280.89609274 391.72899007 -289.12695312 344.13037109 C-289.29066406 343.23318359 -289.454375 342.33599609 -289.62304688 341.41162109 C-294.97822686 310.96233326 -294.54453792 276.53070421 -289.12695312 246.13037109 C-288.94422852 245.06077148 -288.76150391 243.99117187 -288.57324219 242.88916016 C-283.85299138 216.09456734 -275.33166832 189.47105742 -263.12695312 165.13037109 C-262.54977539 163.96175537 -262.54977539 163.96175537 -261.9609375 162.76953125 C-248.26962471 135.22444738 -230.3537657 109.49679092 -208.12695312 88.13037109 C-205.6036962 85.6235256 -203.09921653 83.10185684 -200.61914062 80.55224609 C-194.45971819 74.26411931 -188.08480912 68.54420848 -181.12695312 63.13037109 C-180.25039062 62.43685547 -179.37382812 61.74333984 -178.47070312 61.02880859 C-139.63993337 31.03312971 -95.3537625 12.81430045 -47.43945312 3.25537109 C-45.93729248 2.95034668 -45.93729248 2.95034668 -44.40478516 2.63916016 C-29.73715719 -0.13703185 -14.8716134 -0.03299163 0 0 Z M-42.12695312 33.13037109 C-43.68605093 33.38164317 -45.24959329 33.60541567 -46.81445312 33.81787109 C-63.95824766 36.57497469 -81.03473072 41.69006268 -97.06835938 48.29833984 C-98.73106101 48.97036157 -100.42560927 49.56325647 -102.12695312 50.13037109 C-102.12695312 50.79037109 -102.12695312 51.45037109 -102.12695312 52.13037109 C-105.09695312 52.79037109 -108.06695312 53.45037109 -111.12695312 54.13037109 C-111.12695312 54.79037109 -111.12695312 55.45037109 -111.12695312 56.13037109 C-111.96742188 56.39076172 -112.80789062 56.65115234 -113.67382812 56.91943359 C-136.22592003 64.82797261 -156.33446467 80.7651622 -173.66992188 96.85693359 C-175.84794965 98.87221526 -178.06304599 100.82309545 -180.31445312 102.75537109 C-184.42415152 106.33753057 -188.5580939 110.0015047 -192.12695312 114.13037109 C-192.12695312 114.79037109 -192.12695312 115.45037109 -192.12695312 116.13037109 C-193.61195313 116.62537109 -193.61195313 116.62537109 -195.12695312 117.13037109 C-198.38769989 120.57111662 -201.21623817 124.39194467 -204.12695312 128.13037109 C-204.58279785 128.7073877 -205.03864258 129.2844043 -205.50830078 129.87890625 C-233.40045421 165.29340171 -252.22462584 207.5384128 -259.12695312 252.13037109 C-259.27793457 253.10151855 -259.42891602 254.07266602 -259.58447266 255.07324219 C-269.32613313 320.44850625 -254.6549463 389.98292123 -216.12695312 444.13037109 C-215.62679687 444.83806641 -215.12664062 445.54576172 -214.61132812 446.27490234 C-207.8470987 455.80487977 -200.9100442 464.90338647 -192.80664062 473.33349609 C-190.41364767 475.83113889 -188.13532047 478.38671946 -185.87695312 481.00537109 C-182.88603238 484.38934918 -179.73518732 487.37117575 -176.28320312 490.27880859 C-174.76972363 491.57842686 -173.29299444 492.92148943 -171.84570312 494.29443359 C-160.06724137 505.45488964 -146.7483748 514.69048129 -133.00195312 523.25537109 C-132.15004395 523.78751221 -131.29813477 524.31965332 -130.42041016 524.86791992 C-125.81757897 527.67955714 -121.21008942 530.10992378 -116.24804688 532.22314453 C-114.24280437 533.08081962 -112.28063502 533.99552712 -110.31835938 534.94677734 C-103.3946611 538.28619067 -96.60265875 541.23396048 -89.12695312 543.13037109 C-85.03999251 544.22509269 -81.20663836 545.48996332 -77.31445312 547.13037109 C-72.94849026 548.93166559 -68.71122264 549.95951799 -64.06054688 550.73583984 C-62.12695313 551.13037109 -62.12695313 551.13037109 -61.12695312 552.13037109 C-58.48939286 552.67339821 -55.83851485 553.09480898 -53.18164062 553.53271484 C-50.12695312 554.13037109 -50.12695312 554.13037109 -46.91601562 555.09521484 C-29.31139658 559.90472417 -10.46956661 559.42875238 7.62304688 559.44287109 C8.67613037 559.44627502 9.72921387 559.44967896 10.81420898 559.45318604 C13.84964697 559.45880021 16.88453517 559.44832942 19.91992188 559.43115234 C20.83461243 559.43193283 21.74930298 559.43271332 22.69171143 559.43351746 C27.51560242 559.38062814 31.3209175 558.89237722 35.87304688 557.13037109 C37.28421638 556.85894415 38.70453349 556.62970815 40.13085938 556.45458984 C41.30007935 556.30062744 41.30007935 556.30062744 42.49291992 556.14355469 C43.31961182 556.0360791 44.14630371 555.92860352 44.99804688 555.81787109 C63.5415856 553.16952264 80.59067448 547.68037474 98.10888672 541.14111328 C102.00339282 539.71704905 105.93080249 538.41579657 109.87304688 537.13037109 C109.87304688 536.47037109 109.87304688 535.81037109 109.87304688 535.13037109 C110.52660156 535.03884766 111.18015625 534.94732422 111.85351562 534.85302734 C115.86294907 533.89346048 119.4369104 532.25961499 123.18554688 530.56787109 C123.92611328 530.23851562 124.66667969 529.90916016 125.4296875 529.56982422 C127.2461625 528.76119987 129.05988618 527.94639994 130.87304688 527.13037109 C130.87304688 526.47037109 130.87304688 525.81037109 130.87304688 525.13037109 C131.59105469 524.85837891 132.3090625 524.58638672 133.04882812 524.30615234 C150.01363032 517.24335088 165.25541305 504.25093812 178.87304688 492.13037109 C179.66582031 491.43016846 179.66582031 491.43016846 180.47460938 490.71582031 C186.02004025 485.80161752 191.39471027 480.84222617 196.16601562 475.15380859 C198.17339445 472.77435269 200.27110136 470.4891141 202.37304688 468.19287109 C213.37126294 455.96850256 222.56238765 442.29263522 230.87304688 428.13037109 C231.288125 427.43121582 231.70320313 426.73206055 232.13085938 426.01171875 C240.22113387 412.27658533 246.28912009 398.04149096 251.87304688 383.13037109 C252.22439697 382.22456299 252.57574707 381.31875488 252.93774414 380.38549805 C255.54706145 373.51831966 257.34629305 366.60940593 258.93554688 359.44287109 C259.19303711 358.29802246 259.45052734 357.15317383 259.71582031 355.97363281 C260.44667311 352.69498454 261.16371387 349.41373509 261.87304688 346.13037109 C262.04755371 345.32809082 262.22206055 344.52581055 262.40185547 343.69921875 C276.15213157 279.40738727 261.9718659 208.71456728 226.92382812 153.39599609 C211.96195711 130.37218107 194.4345619 109.22334025 172.87304688 92.13037109 C171.60074219 91.05722656 171.60074219 91.05722656 170.30273438 89.96240234 C152.11231932 73.54238664 152.11231932 73.54238664 130.87304688 64.13037109 C130.87304688 63.47037109 130.87304688 62.81037109 130.87304688 62.13037109 C129.75929688 61.67662109 128.64554687 61.22287109 127.49804688 60.75537109 C123.87304688 59.13037109 123.87304688 59.13037109 121.87304688 57.13037109 C116.98640292 54.88532119 111.97663152 52.99707939 106.93554688 51.13037109 C105.59309896 50.63037109 104.25065104 50.13037109 102.90820312 49.63037109 C102.24522217 49.38407959 101.58224121 49.13778809 100.89916992 48.8840332 C96.59413118 47.28267706 92.29232565 45.67297971 88.00195312 44.03271484 C83.08305148 42.18344741 78.32051415 40.62805729 73.13867188 39.72021484 C70.87304688 39.13037109 70.87304688 39.13037109 67.74023438 37.66552734 C63.22423032 35.6734919 58.61505612 35.20504711 53.74804688 34.63037109 C48.08062047 33.94315322 42.69704529 33.09442982 37.19335938 31.55615234 C27.95656835 29.35691639 18.55537907 29.72059379 9.11083984 29.79418945 C5.90761656 29.81761825 2.70523966 29.81475333 -0.49804688 29.80810547 C-21.83979566 28.72853982 -21.83979566 28.72853982 -42.12695312 33.13037109 Z " fill="#010101" transform="translate(292.126953125,-0.13037109375)"/>
<path d="M0 0 C1.81081055 -0.01160156 1.81081055 -0.01160156 3.65820312 -0.0234375 C15.67488194 0.00228038 27.22781446 1.79198113 38.9375 4.375 C40.20207031 4.64763672 40.20207031 4.64763672 41.4921875 4.92578125 C43.51656365 5.36286246 45.53968347 5.80575671 47.5625 6.25 C47.0504563 16.55276939 45.41902348 26.44753185 43.5 36.5625 C43.2148703 38.09298275 42.93036135 39.62358128 42.64648438 41.15429688 C41.95894879 44.85423408 41.26311261 48.55251773 40.5625 52.25 C39.74370361 52.10852539 38.92490723 51.96705078 38.08129883 51.82128906 C31.08165059 50.6686084 24.34092909 49.93219829 17.25 50 C16.42177734 49.99226563 15.59355469 49.98453125 14.74023438 49.9765625 C5.71319455 49.99723309 5.71319455 49.99723309 -2.27734375 53.6875 C-6.13342901 59.17658934 -6.62600611 62.57014784 -6.75390625 69.1953125 C-6.77255737 69.97962646 -6.7912085 70.76394043 -6.8104248 71.57202148 C-6.87880382 74.50623136 -6.93890059 77.44062952 -7 80.375 C-7.144375 86.93375 -7.28875 93.4925 -7.4375 100.25 C8.7325 100.25 24.9025 100.25 41.5625 100.25 C41.5625 114.875 41.5625 114.875 40.90625 121.30078125 C40.78443359 122.52708252 40.66261719 123.75338379 40.53710938 125.0168457 C40.30217773 127.26694458 40.30217773 127.26694458 40.0625 129.5625 C39.32 136.8328125 39.32 136.8328125 38.5625 144.25 C23.3825 144.25 8.2025 144.25 -7.4375 144.25 C-7.4375 196.06 -7.4375 247.87 -7.4375 301.25 C-26.5775 301.25 -45.7175 301.25 -65.4375 301.25 C-65.4375 249.77 -65.4375 198.29 -65.4375 145.25 C-75.6675 145.25 -85.8975 145.25 -96.4375 145.25 C-96.4375 130.07 -96.4375 114.89 -96.4375 99.25 C-86.2075 99.25 -75.9775 99.25 -65.4375 99.25 C-65.48970703 94.42181641 -65.48970703 94.42181641 -65.54296875 89.49609375 C-65.56646154 86.32854089 -65.58462258 83.16099828 -65.60229492 79.9934082 C-65.61724751 77.81627963 -65.63761697 75.63918046 -65.66381836 73.4621582 C-65.90070628 53.2523672 -65.686634 32.93805965 -50.77734375 17.5078125 C-35.54072834 2.80536891 -20.93913301 -0.13372517 0 0 Z " fill="#020202" transform="translate(318.4375,143.75)"/>
</svg>
