<?xml version="1.0" encoding="UTF-8"?>
<svg version="1.1" xmlns="http://www.w3.org/2000/svg" width="839" height="839">
<path d="M0 0 C0.86447754 0.58136719 1.72895508 1.16273437 2.61962891 1.76171875 C14.23480051 9.61056862 25.28709046 17.96364659 36 27 C36.58942383 27.49177734 37.17884766 27.98355469 37.78613281 28.49023438 C56.25539801 43.90358216 73.96685283 60.54336357 88.9453125 79.421875 C91.15239399 82.1912168 93.4484825 84.87126867 95.75 87.5625 C142.79010396 144.01062475 171.83971927 215.2565923 183.25 287.375 C183.40114258 288.3225415 183.55228516 289.27008301 183.70800781 290.24633789 C186.67218127 310.13072273 187.37305742 329.92015507 187.3125 350 C187.30976578 351.88386414 187.30976578 351.88386414 187.30697632 353.80578613 C187.26159457 372.38598895 186.81938501 390.60583047 184 409 C183.82307617 410.19786133 183.64615234 411.39572266 183.46386719 412.62988281 C170.7060727 497.30726486 132.52833688 573.98344018 75 637 C74.54705566 637.49806152 74.09411133 637.99612305 73.62744141 638.50927734 C62.57507629 650.66204611 62.57507629 650.66204611 59 654 C58.34 654 57.68 654 57 654 C57 654.66 57 655.32 57 656 C55.6015625 657.41015625 55.6015625 657.41015625 53.625 659.0625 C50.47821792 661.73066312 47.40792312 664.45308248 44.375 667.25 C38.70141339 672.36667013 32.73095074 677.05761178 26.67578125 681.70947266 C25.20398173 682.84291267 23.74181212 683.98883444 22.28125 685.13671875 C-25.43734876 721.97828397 -82.10030603 748.26957687 -141 761 C-141.96824707 761.2170459 -142.93649414 761.4340918 -143.93408203 761.65771484 C-194.00106968 772.75390548 -247.37770657 773.89938852 -298 766 C-299.17288574 765.81808105 -300.34577148 765.63616211 -301.55419922 765.44873047 C-309.09967048 764.22876481 -316.55272717 762.71672708 -324 761 C-325.77987305 760.59056152 -325.77987305 760.59056152 -327.59570312 760.17285156 C-391.08684523 745.26380029 -451.20359189 716.40392429 -501 674 C-501.63292969 673.4632666 -502.26585937 672.9265332 -502.91796875 672.37353516 C-506.41745907 669.40198519 -509.90569483 666.41803546 -513.36767578 663.40283203 C-514.55224594 662.38480329 -515.75042532 661.38254248 -516.95654297 660.39013672 C-517.59865723 659.85791504 -518.24077148 659.32569336 -518.90234375 658.77734375 C-519.49394287 658.29386475 -520.08554199 657.81038574 -520.69506836 657.31225586 C-522 656 -522 656 -522 654 C-522.55042969 653.77570312 -523.10085938 653.55140625 -523.66796875 653.3203125 C-526.72583148 651.58906024 -528.84821826 649.37762275 -531.3125 646.875 C-531.79960449 646.3807251 -532.28670898 645.8864502 -532.78857422 645.37719727 C-536.06958376 642.02278098 -539.21990156 638.58347246 -542.265625 635.015625 C-544.25912581 632.69885379 -546.31554388 630.44580016 -548.375 628.1875 C-568.82732685 605.45886021 -586.36458558 579.8130135 -601 553 C-601.4842041 552.11521973 -601.9684082 551.23043945 -602.46728516 550.31884766 C-625.67328696 507.60937467 -640.65929531 461.60186826 -648.25 413.625 C-648.40114258 412.6774585 -648.55228516 411.72991699 -648.70800781 410.75366211 C-651.67218127 390.86927727 -652.37305742 371.07984493 -652.3125 351 C-652.31067719 349.74409058 -652.30885437 348.48818115 -652.30697632 347.19421387 C-652.26158898 328.61172173 -651.81029654 310.39716074 -649 292 C-648.82839355 290.8234082 -648.65678711 289.64681641 -648.47998047 288.43457031 C-642.55729014 248.57946916 -630.89643026 209.58836194 -614 173 C-613.57428711 172.07687012 -613.14857422 171.15374023 -612.70996094 170.20263672 C-602.53007985 148.43353175 -590.10333946 127.45238305 -576 108 C-575.46697266 107.25347168 -574.93394531 106.50694336 -574.38476562 105.73779297 C-566.46028661 94.64397415 -558.11880566 84.13200629 -549 74 C-548.19949219 73.10023438 -547.39898438 72.20046875 -546.57421875 71.2734375 C-544.39629652 68.83633091 -542.20164124 66.4156897 -540 64 C-539.55914063 63.51402344 -539.11828125 63.02804688 -538.6640625 62.52734375 C-531.47192789 54.60010146 -524.26776745 46.85658767 -516.14453125 39.8671875 C-513.84892571 37.86846355 -511.615204 35.81054771 -509.375 33.75 C-503.70141339 28.63332987 -497.73095074 23.94238822 -491.67578125 19.29052734 C-490.20398173 18.15708733 -488.74181212 17.01116556 -487.28125 15.86328125 C-476.62363577 7.63497614 -465.27711503 0.34099137 -454 -7 C-453.32130859 -7.4434375 -452.64261719 -7.886875 -451.94335938 -8.34375 C-412.14856741 -34.06967612 -366.08026 -50.84367563 -320 -61 C-318.94796387 -61.23799316 -317.89592773 -61.47598633 -316.81201172 -61.72119141 C-219.54212635 -83.4118798 -115.92124891 -64.22270284 0 0 Z " fill="#FEFEFE" transform="translate(652,69)"/>
<path d="M0 0 C1.18991246 -0.00523668 2.37982491 -0.01047336 3.60579532 -0.01586872 C6.90051246 -0.02826273 10.19501599 -0.03171262 13.48974168 -0.03127182 C17.04602206 -0.03292267 20.60226382 -0.04599382 24.15852356 -0.0574646 C31.92891679 -0.08028846 39.69928266 -0.08823168 47.46970487 -0.09329104 C52.32119672 -0.09654965 57.17268065 -0.10307292 62.02416801 -0.11029243 C75.45725149 -0.12985119 88.89032762 -0.14626089 102.32342625 -0.14916897 C103.18253259 -0.14935654 104.04163893 -0.14954411 104.92677879 -0.14973736 C106.66835209 -0.15010361 108.40992538 -0.15046731 110.15149868 -0.15082847 C111.4482632 -0.15110269 111.4482632 -0.15110269 112.77122498 -0.15138245 C114.06957148 -0.15165327 114.06957148 -0.15165327 115.39414721 -0.15192956 C129.43251887 -0.15547442 143.47073745 -0.18251945 157.50905598 -0.21988034 C171.92258647 -0.25793308 186.33604091 -0.2773262 200.74962276 -0.27762848 C208.84227877 -0.27821356 216.93475191 -0.2867389 225.02736092 -0.31562614 C231.91485149 -0.34009899 238.80209245 -0.34745049 245.68961472 -0.33237862 C249.20429603 -0.32519397 252.71848398 -0.32613312 256.23311043 -0.34878922 C260.04104434 -0.37310145 263.84826901 -0.35878771 267.65625 -0.34057617 C268.76985903 -0.35377614 269.88346806 -0.36697611 271.03082281 -0.38057607 C278.53055188 -0.29830344 278.53055188 -0.29830344 282.38349819 2.70633698 C283.00427274 3.55371681 283.62504728 4.40109665 284.26463318 5.27415466 C285.34484835 6.3501104 286.42552003 7.42560817 287.50682068 8.50047302 C290.73513928 11.71095238 293.96037225 14.9245124 297.18455505 18.1391449 C298.57037892 19.51992645 299.9570971 20.899811 301.3447113 22.27879333 C303.36208086 24.28397262 305.37614932 26.29241827 307.38963318 28.30149841 C308.00435486 28.91105881 308.61907654 29.5206192 309.25242615 30.14865112 C312.81185875 33.70762345 316.07659113 37.3799143 319.26463318 41.27415466 C320.39813455 42.31159659 321.56033652 43.31980637 322.76463318 44.27415466 C326.02891496 46.97562924 328.54981697 50.01637521 331.26463318 53.27415466 C332.41309542 54.29500999 333.5808524 55.29447402 334.76463318 56.27415466 C338.02891496 58.97562924 340.54981697 62.01637521 343.26463318 65.27415466 C344.41309542 66.29500999 345.5808524 67.29447402 346.76463318 68.27415466 C350.02891496 70.97562924 352.54981697 74.01637521 355.26463318 77.27415466 C356.41309542 78.29500999 357.5808524 79.29447402 358.76463318 80.27415466 C362.02891496 82.97562924 364.54981697 86.01637521 367.26463318 89.27415466 C368.41309542 90.29500999 369.5808524 91.29447402 370.76463318 92.27415466 C374.02891496 94.97562924 376.54981697 98.01637521 379.26463318 101.27415466 C380.41309542 102.29500999 381.5808524 103.29447402 382.76463318 104.27415466 C386.02891496 106.97562924 388.54981697 110.01637521 391.26463318 113.27415466 C392.41309542 114.29500999 393.5808524 115.29447402 394.76463318 116.27415466 C398.06334729 119.00880295 400.57213615 121.94396097 403.26463318 125.27415466 C404.12564019 126.02935607 404.98664719 126.78455747 405.87374532 127.56264377 C408.7746237 130.85253597 408.89067092 132.27145673 408.89383888 136.59582901 C408.91339699 138.5200457 408.91339699 138.5200457 408.93335021 140.48313546 C408.9225401 141.90462864 408.91125683 143.32611828 408.89955139 144.74760437 C408.90531218 146.2593167 408.91325302 147.77102203 408.92318761 149.2827127 C408.94409137 153.4386082 408.93372992 157.59393081 408.91825652 161.74982858 C408.90696087 166.23124876 408.92439709 170.71256924 408.93815613 175.19396973 C408.96041438 183.97485965 408.95557522 192.75553614 408.94109292 201.5364345 C408.92980797 208.67393774 408.92826657 215.81138109 408.93371201 222.94889069 C408.93447817 223.96417231 408.93524434 224.97945392 408.93603372 226.02550165 C408.93763233 228.08798142 408.9392534 230.15046117 408.94089667 232.2129409 C408.9551625 251.56416903 408.93874989 270.91527884 408.91189484 290.26648757 C408.8895688 306.86789819 408.89342409 323.46913394 408.91648865 340.07054138 C408.94325518 359.34559533 408.95377491 378.6205454 408.93842733 397.89561534 C408.93683458 399.9517954 408.93526273 402.00797548 408.93371201 404.06415558 C408.93294063 405.0758427 408.93216925 406.08752982 408.9313745 407.12987413 C408.92705906 414.25611038 408.93434099 421.38228073 408.94610977 428.50850677 C408.96014336 437.19726227 408.95631729 445.88579196 408.92970605 454.57452163 C408.91657736 459.00708096 408.91139905 463.43926402 408.92795181 467.87182045 C408.94288505 471.93218286 408.93460813 475.99182137 408.90806405 480.05211839 C408.90249313 481.51846474 408.9052884 482.98487262 408.91744299 484.45117918 C409.01809799 497.60645981 405.47910509 504.57713011 396.58494568 514.04368591 C386.27035134 523.9588936 374.16636522 524.72043232 360.48205566 524.66183472 C358.88908798 524.66601258 357.29612327 524.67149258 355.70316404 524.67815453 C351.34592698 524.69256832 346.98887972 524.68837718 342.63163245 524.68098772 C337.92465112 524.67624829 333.2177104 524.6887727 328.51074219 524.69900513 C319.29744202 524.71618294 310.08421009 524.71703529 300.87089808 524.71179222 C293.38123497 524.70774761 285.891592 524.70919754 278.40192986 524.71454048 C276.80179197 524.71566311 276.80179197 524.71566311 275.16932807 524.71680843 C273.00208445 524.71833993 270.83484084 524.71987828 268.66759723 524.72142339 C248.3534722 524.73514461 228.03938571 524.72971327 207.72526156 524.71823818 C189.14849318 524.70830491 170.57182438 524.72124879 151.99507136 524.74517237 C132.90991186 524.76956512 113.82479874 524.77917089 94.73962396 524.77251965 C84.02893231 524.76902799 73.31831726 524.77125608 62.60763741 524.78877068 C53.49053955 524.80349476 44.37357225 524.80412527 35.25647695 524.78669976 C30.60697614 524.77818939 25.95770853 524.77604122 21.30821991 524.79135132 C17.04760037 524.80520703 12.78741361 524.800424 8.52681904 524.78111208 C6.98992155 524.77735449 5.45298932 524.78026709 3.9161228 524.79072373 C-8.68860771 524.87035066 -18.64551816 522.95286355 -28.43849182 514.62571716 C-35.73492589 507.15555847 -40.0512778 498.84270464 -39.99263573 488.41753387 C-39.9961418 487.62887727 -39.99964788 486.84022067 -40.0032602 486.02766538 C-40.01259261 483.37477332 -40.00764611 480.7220999 -40.00279236 478.06919861 C-40.00652772 476.15198954 -40.01112878 474.234782 -40.016523 472.31757689 C-40.02878309 467.04082082 -40.02848898 461.76412802 -40.02613425 456.48736095 C-40.02572683 450.79933884 -40.03675825 445.11133721 -40.04624939 439.42332458 C-40.06287806 428.27491643 -40.06835983 417.12652942 -40.06947415 405.9781099 C-40.07042396 396.91512155 -40.07453095 387.85214019 -40.0808754 378.78915405 C-40.09562653 357.279599 -40.10792452 335.77005084 -40.10687828 314.26049042 C-40.10684712 313.57243546 -40.10681597 312.8843805 -40.10678386 312.17547539 C-40.10661765 308.68814106 -40.10641957 305.20080674 -40.10621445 301.71347243 C-40.10617456 301.02087981 -40.10613467 300.32828719 -40.10609357 299.61470691 C-40.10601269 298.21411368 -40.1059291 296.81352046 -40.10584279 295.41292723 C-40.10461796 273.63422111 -40.11961684 251.85557732 -40.14698792 230.07688904 C-40.17773025 205.60568736 -40.19489369 181.1345338 -40.19306147 156.66331053 C-40.19239756 143.70788461 -40.19789011 130.75252895 -40.21941757 117.79711914 C-40.23763355 106.76370953 -40.24197339 95.73040201 -40.22839873 84.69698387 C-40.22187058 79.06907661 -40.22174646 73.44136518 -40.23910522 67.81347656 C-40.25484797 62.65636414 -40.25195975 57.49960265 -40.23453696 52.34249872 C-40.23146968 50.48172776 -40.23508911 48.62093052 -40.24625711 46.76019055 C-40.32139137 33.34815655 -40.01226416 20.35649077 -30.01661682 10.21165466 C-20.64382416 2.25120062 -12.05667925 -0.02619981 0 0 Z " fill="#FDFDFD" transform="translate(250.73536682128906,164.72584533691406)"/>
<path d="M0 0 C1.18991246 -0.00523668 2.37982491 -0.01047336 3.60579532 -0.01586872 C6.90051246 -0.02826273 10.19501599 -0.03171262 13.48974168 -0.03127182 C17.04602206 -0.03292267 20.60226382 -0.04599382 24.15852356 -0.0574646 C31.92891679 -0.08028846 39.69928266 -0.08823168 47.46970487 -0.09329104 C52.32119672 -0.09654965 57.17268065 -0.10307292 62.02416801 -0.11029243 C75.45725149 -0.12985119 88.89032762 -0.14626089 102.32342625 -0.14916897 C103.18253259 -0.14935654 104.04163893 -0.14954411 104.92677879 -0.14973736 C106.66835209 -0.15010361 108.40992538 -0.15046731 110.15149868 -0.15082847 C111.4482632 -0.15110269 111.4482632 -0.15110269 112.77122498 -0.15138245 C114.06957148 -0.15165327 114.06957148 -0.15165327 115.39414721 -0.15192956 C129.43251887 -0.15547442 143.47073745 -0.18251945 157.50905598 -0.21988034 C171.92258647 -0.25793308 186.33604091 -0.2773262 200.74962276 -0.27762848 C208.84227877 -0.27821356 216.93475191 -0.2867389 225.02736092 -0.31562614 C231.91485149 -0.34009899 238.80209245 -0.34745049 245.68961472 -0.33237862 C249.20429603 -0.32519397 252.71848398 -0.32613312 256.23311043 -0.34878922 C260.04104434 -0.37310145 263.84826901 -0.35878771 267.65625 -0.34057617 C268.76985903 -0.35377614 269.88346806 -0.36697611 271.03082281 -0.38057607 C278.53055188 -0.29830344 278.53055188 -0.29830344 282.38349819 2.70633698 C283.00427274 3.55371681 283.62504728 4.40109665 284.26463318 5.27415466 C285.34484835 6.3501104 286.42552003 7.42560817 287.50682068 8.50047302 C290.73513928 11.71095238 293.96037225 14.9245124 297.18455505 18.1391449 C298.57037892 19.51992645 299.9570971 20.899811 301.3447113 22.27879333 C303.36208086 24.28397262 305.37614932 26.29241827 307.38963318 28.30149841 C308.00435486 28.91105881 308.61907654 29.5206192 309.25242615 30.14865112 C312.81185875 33.70762345 316.07659113 37.3799143 319.26463318 41.27415466 C320.39813455 42.31159659 321.56033652 43.31980637 322.76463318 44.27415466 C326.02891496 46.97562924 328.54981697 50.01637521 331.26463318 53.27415466 C332.41309542 54.29500999 333.5808524 55.29447402 334.76463318 56.27415466 C338.02891496 58.97562924 340.54981697 62.01637521 343.26463318 65.27415466 C344.41309542 66.29500999 345.5808524 67.29447402 346.76463318 68.27415466 C350.02891496 70.97562924 352.54981697 74.01637521 355.26463318 77.27415466 C356.41309542 78.29500999 357.5808524 79.29447402 358.76463318 80.27415466 C362.02891496 82.97562924 364.54981697 86.01637521 367.26463318 89.27415466 C368.41309542 90.29500999 369.5808524 91.29447402 370.76463318 92.27415466 C374.02891496 94.97562924 376.54981697 98.01637521 379.26463318 101.27415466 C380.41309542 102.29500999 381.5808524 103.29447402 382.76463318 104.27415466 C386.02891496 106.97562924 388.54981697 110.01637521 391.26463318 113.27415466 C392.41309542 114.29500999 393.5808524 115.29447402 394.76463318 116.27415466 C398.06334729 119.00880295 400.57213615 121.94396097 403.26463318 125.27415466 C404.12564019 126.02935607 404.98664719 126.78455747 405.87374532 127.56264377 C408.7746237 130.85253597 408.89067092 132.27145673 408.89383888 136.59582901 C408.91339699 138.5200457 408.91339699 138.5200457 408.93335021 140.48313546 C408.9225401 141.90462864 408.91125683 143.32611828 408.89955139 144.74760437 C408.90531218 146.2593167 408.91325302 147.77102203 408.92318761 149.2827127 C408.94409137 153.4386082 408.93372992 157.59393081 408.91825652 161.74982858 C408.90696087 166.23124876 408.92439709 170.71256924 408.93815613 175.19396973 C408.96041438 183.97485965 408.95557522 192.75553614 408.94109292 201.5364345 C408.92980797 208.67393774 408.92826657 215.81138109 408.93371201 222.94889069 C408.93447817 223.96417231 408.93524434 224.97945392 408.93603372 226.02550165 C408.93763233 228.08798142 408.9392534 230.15046117 408.94089667 232.2129409 C408.9551625 251.56416903 408.93874989 270.91527884 408.91189484 290.26648757 C408.8895688 306.86789819 408.89342409 323.46913394 408.91648865 340.07054138 C408.94325518 359.34559533 408.95377491 378.6205454 408.93842733 397.89561534 C408.93683458 399.9517954 408.93526273 402.00797548 408.93371201 404.06415558 C408.93294063 405.0758427 408.93216925 406.08752982 408.9313745 407.12987413 C408.92705906 414.25611038 408.93434099 421.38228073 408.94610977 428.50850677 C408.96014336 437.19726227 408.95631729 445.88579196 408.92970605 454.57452163 C408.91657736 459.00708096 408.91139905 463.43926402 408.92795181 467.87182045 C408.94288505 471.93218286 408.93460813 475.99182137 408.90806405 480.05211839 C408.90249313 481.51846474 408.9052884 482.98487262 408.91744299 484.45117918 C409.01809799 497.60645981 405.47910509 504.57713011 396.58494568 514.04368591 C386.27035134 523.9588936 374.16636522 524.72043232 360.48205566 524.66183472 C358.88908798 524.66601258 357.29612327 524.67149258 355.70316404 524.67815453 C351.34592698 524.69256832 346.98887972 524.68837718 342.63163245 524.68098772 C337.92465112 524.67624829 333.2177104 524.6887727 328.51074219 524.69900513 C319.29744202 524.71618294 310.08421009 524.71703529 300.87089808 524.71179222 C293.38123497 524.70774761 285.891592 524.70919754 278.40192986 524.71454048 C276.80179197 524.71566311 276.80179197 524.71566311 275.16932807 524.71680843 C273.00208445 524.71833993 270.83484084 524.71987828 268.66759723 524.72142339 C248.3534722 524.73514461 228.03938571 524.72971327 207.72526156 524.71823818 C189.14849318 524.70830491 170.57182438 524.72124879 151.99507136 524.74517237 C132.90991186 524.76956512 113.82479874 524.77917089 94.73962396 524.77251965 C84.02893231 524.76902799 73.31831726 524.77125608 62.60763741 524.78877068 C53.49053955 524.80349476 44.37357225 524.80412527 35.25647695 524.78669976 C30.60697614 524.77818939 25.95770853 524.77604122 21.30821991 524.79135132 C17.04760037 524.80520703 12.78741361 524.800424 8.52681904 524.78111208 C6.98992155 524.77735449 5.45298932 524.78026709 3.9161228 524.79072373 C-8.68860771 524.87035066 -18.64551816 522.95286355 -28.43849182 514.62571716 C-35.73492589 507.15555847 -40.0512778 498.84270464 -39.99263573 488.41753387 C-39.9961418 487.62887727 -39.99964788 486.84022067 -40.0032602 486.02766538 C-40.01259261 483.37477332 -40.00764611 480.7220999 -40.00279236 478.06919861 C-40.00652772 476.15198954 -40.01112878 474.234782 -40.016523 472.31757689 C-40.02878309 467.04082082 -40.02848898 461.76412802 -40.02613425 456.48736095 C-40.02572683 450.79933884 -40.03675825 445.11133721 -40.04624939 439.42332458 C-40.06287806 428.27491643 -40.06835983 417.12652942 -40.06947415 405.9781099 C-40.07042396 396.91512155 -40.07453095 387.85214019 -40.0808754 378.78915405 C-40.09562653 357.279599 -40.10792452 335.77005084 -40.10687828 314.26049042 C-40.10684712 313.57243546 -40.10681597 312.8843805 -40.10678386 312.17547539 C-40.10661765 308.68814106 -40.10641957 305.20080674 -40.10621445 301.71347243 C-40.10617456 301.02087981 -40.10613467 300.32828719 -40.10609357 299.61470691 C-40.10601269 298.21411368 -40.1059291 296.81352046 -40.10584279 295.41292723 C-40.10461796 273.63422111 -40.11961684 251.85557732 -40.14698792 230.07688904 C-40.17773025 205.60568736 -40.19489369 181.1345338 -40.19306147 156.66331053 C-40.19239756 143.70788461 -40.19789011 130.75252895 -40.21941757 117.79711914 C-40.23763355 106.76370953 -40.24197339 95.73040201 -40.22839873 84.69698387 C-40.22187058 79.06907661 -40.22174646 73.44136518 -40.23910522 67.81347656 C-40.25484797 62.65636414 -40.25195975 57.49960265 -40.23453696 52.34249872 C-40.23146968 50.48172776 -40.23508911 48.62093052 -40.24625711 46.76019055 C-40.32139137 33.34815655 -40.01226416 20.35649077 -30.01661682 10.21165466 C-20.64382416 2.25120062 -12.05667925 -0.02619981 0 0 Z M-2.73536682 37.27415466 C-2.73536682 185.44415466 -2.73536682 333.61415466 -2.73536682 486.27415466 C120.68463318 486.27415466 244.10463318 486.27415466 371.26463318 486.27415466 C371.51213318 402.83571716 371.51213318 402.83571716 371.76463318 317.71165466 C371.83746521 300.12940613 371.91029724 282.54715759 371.9853363 264.43211365 C372.01208709 248.71026476 372.01208709 248.71026476 372.02818298 232.98840332 C372.03565469 225.9701605 372.06504684 218.95242497 372.10923767 211.93432617 C372.16010926 203.84329257 372.18333315 195.75274687 372.17219278 187.66155208 C372.16736643 183.52101874 372.1750938 179.38157622 372.21835423 175.24124229 C372.2572373 171.49714369 372.25925924 167.7549086 372.23184204 164.01072502 C372.22683923 162.01549074 372.26136702 160.02027839 372.29727936 158.02536106 C372.33225847 151.59979032 372.33225847 151.59979032 369.52993309 146.04684216 C367.51533816 144.3169345 365.43100968 142.80555023 363.26463318 141.27415466 C361.38789177 138.78861332 361.38789177 138.78861332 360.11738586 136.48413086 C359.61057533 135.59940346 359.1037648 134.71467606 358.58159637 133.80313873 C358.04886864 132.85586159 357.5161409 131.90858444 356.9672699 130.93260193 C348.14721298 116.01882874 338.0995062 102.24226466 327.13963318 88.83665466 C326.64079494 88.22327618 326.14195671 87.60989769 325.62800217 86.97793198 C300.28766957 56.016899 271.11939778 36.69131586 230.7395111 32.57835568 C218.53320914 31.40889277 206.30514635 30.82826084 194.05369568 30.39524841 C192.70496968 30.34447057 191.35624512 30.29365423 190.00752211 30.24279714 C125.91448299 27.96985458 60.92238204 33.95065773 -2.73536682 37.27415466 Z " fill="#020202" transform="translate(250.73536682128906,164.72584533691406)"/>
<path d="M0 0 C86.46 0 172.92 0 262 0 C262 12.54 262 25.08 262 38 C175.54 38 89.08 38 0 38 C0 25.46 0 12.92 0 0 Z " fill="#030303" transform="translate(285,464)"/>
<path d="M0 0 C86.46 0 172.92 0 262 0 C262 12.54 262 25.08 262 38 C175.54 38 89.08 38 0 38 C0 25.46 0 12.92 0 0 Z " fill="#030303" transform="translate(285,389)"/>
<path d="M0 0 C86.13 0 172.26 0 261 0 C261 12.21 261 24.42 261 37 C174.87 37 88.74 37 0 37 C0 24.79 0 12.58 0 0 Z " fill="#000000" transform="translate(286,539)"/>
<path d="M0 0 C49.17 0 98.34 0 149 0 C149 12.21 149 24.42 149 37 C99.83 37 50.66 37 0 37 C0 24.79 0 12.58 0 0 Z " fill="#000000" transform="translate(286,277)"/>
<path d="M0 0 C0.66 0.33 1.32 0.66 2 1 C-0.97 3.97 -3.94 6.94 -7 10 C-7.66 9.67 -8.32 9.34 -9 9 C-8.06725891 7.87105124 -7.12859878 6.74699124 -6.1875 5.625 C-5.66542969 4.99851563 -5.14335937 4.37203125 -4.60546875 3.7265625 C-3 2 -3 2 0 0 Z " fill="#282828" transform="translate(226,171)"/>
</svg>
