<?xml version="1.0" encoding="UTF-8"?>
<svg version="1.1" xmlns="http://www.w3.org/2000/svg" width="611" height="611">
<path d="M0 0 C3.08647572 0.0053627 6.17280599 0.00002024 9.25927734 -0.00634766 C38.81471059 -0.01923204 38.81471059 -0.01923204 52.52880859 2.81787109 C53.39594482 2.99157227 54.26308105 3.16527344 55.15649414 3.34423828 C57.97260506 3.92018724 60.78231441 4.52069276 63.59130859 5.13037109 C64.5784082 5.34322754 65.56550781 5.55608398 66.58251953 5.77539062 C133.83878618 20.51516854 199.46039862 57.63262623 241.59130859 113.13037109 C242.33638672 114.05849609 243.08146484 114.98662109 243.84912109 115.94287109 C256.98120681 132.49521064 267.95298046 150.35294015 277.59130859 169.13037109 C277.96980957 169.86143066 278.34831055 170.59249023 278.73828125 171.34570312 C292.23789394 197.70445862 300.46786265 227.06018148 305.59130859 256.13037109 C305.84122559 257.53561035 305.84122559 257.53561035 306.09619141 258.96923828 C311.27137518 289.79533294 311.06215366 324.36877222 305.59130859 355.13037109 C305.41438477 356.13422852 305.23746094 357.13808594 305.05517578 358.17236328 C295.10984541 412.81156176 271.63622871 464.51185777 234.59130859 506.13037109 C233.93477295 506.87230713 233.2782373 507.61424316 232.60180664 508.37866211 C220.00638614 522.5108148 206.83923923 535.88037349 191.59130859 547.13037109 C190.57552734 547.94119141 189.55974609 548.75201172 188.51318359 549.58740234 C179.36336614 556.88656576 169.59979094 563.07808791 159.59130859 569.13037109 C158.60420898 569.73147705 158.60420898 569.73147705 157.59716797 570.34472656 C125.61282258 589.64418105 89.37249348 602.12204994 52.59130859 608.13037109 C51.59808594 608.30391113 50.60486328 608.47745117 49.58154297 608.65625 C18.78697056 613.87645669 -15.67161322 613.50088265 -46.40869141 608.13037109 C-47.49472656 607.95296387 -48.58076172 607.77555664 -49.69970703 607.59277344 C-80.26121301 602.48329874 -109.85342679 592.23639236 -137.40869141 578.13037109 C-138.25012695 577.70014648 -139.0915625 577.26992188 -139.95849609 576.82666016 C-175.90895069 558.17435868 -210.94529612 530.49809451 -235.40869141 498.13037109 C-236.15248047 497.20353516 -236.89626953 496.27669922 -237.66259766 495.32177734 C-250.7982649 478.77041493 -261.76979525 460.90890866 -271.40869141 442.13037109 C-271.78719238 441.39931152 -272.16569336 440.66825195 -272.55566406 439.91503906 C-286.05527675 413.55628357 -294.28524547 384.20056071 -299.40869141 355.13037109 C-299.57530273 354.19354492 -299.74191406 353.25671875 -299.91357422 352.29150391 C-305.09808664 321.40984293 -304.79406236 286.95249416 -299.40869141 256.13037109 C-299.23128418 255.04433594 -299.05387695 253.95830078 -298.87109375 252.83935547 C-294.17752011 224.76549518 -285.27697205 196.55827323 -272.40869141 171.13037109 C-272.01472168 170.33969238 -271.62075195 169.54901367 -271.21484375 168.734375 C-259.69293012 145.73164851 -245.52816389 124.3634263 -228.40869141 105.13037109 C-227.42388794 104.01746704 -227.42388794 104.01746704 -226.41918945 102.88208008 C-213.82514661 88.75147314 -200.65984 75.37391859 -185.40869141 64.13037109 C-184.3556127 63.30420966 -183.30612512 62.47345054 -182.26025391 61.63818359 C-141.87814652 29.49502629 -92.17935706 10.36706146 -41.49560547 2.51586914 C-39.22596581 2.14648478 -39.22596581 2.14648478 -36.40869141 1.13037109 C-24.32243096 -0.14071522 -12.13685561 -0.02504033 0 0 Z " fill="#FDFDFD" transform="translate(302.40869140625,-0.13037109375)"/>
<path d="M0 0 C1.05125565 -0.00392761 1.05125565 -0.00392761 2.12374878 -0.00793457 C22.90422303 -0.01612127 43.42641678 2.64232537 63.4375 8.3125 C64.85648996 8.66400513 66.27715598 9.00879664 67.69921875 9.34765625 C68.41803223 9.51974609 69.1368457 9.69183594 69.87744141 9.86914062 C70.92810791 10.11954102 70.92810791 10.11954102 72 10.375 C78.20208381 11.85410494 83.5783865 13.85117532 89.25 16.75 C91.81140365 18.00559003 94.30474334 19.05461772 96.9609375 20.07421875 C118.36609104 28.59550845 138.96924114 41.31068965 156.4375 56.3125 C157.47038758 57.16393436 158.50432407 58.01409718 159.5390625 58.86328125 C172.60231716 69.69338874 185.41944605 81.56452733 195.4375 95.3125 C196.42797058 96.62531308 197.41889992 97.93778011 198.41015625 99.25 C205.85930132 109.22712547 212.32771457 119.54192911 218.37353516 130.42089844 C219.27162563 132.01759531 220.20961437 133.59175312 221.15625 135.16015625 C222.512951 137.43924848 223.54129727 139.78233129 224.5546875 142.23046875 C225.62846425 144.76287144 226.78395661 147.25295847 227.9375 149.75 C231.31326729 157.18881654 233.76412182 164.32811706 235.68359375 172.27734375 C236.98676534 177.52379103 238.37982596 182.7789082 240.46484375 187.7734375 C241.4589281 190.3684368 241.98451877 192.76189022 242.4375 195.5 C243.02858666 198.98186985 243.67399557 202.4273003 244.4375 205.875 C250.02951807 234.76709334 254.35483092 284.39578915 240.43432617 311.24755859 C239.41176611 313.36580816 238.93323646 315.20846735 238.48828125 317.51171875 C237.5098141 322.17158517 236.15462234 326.61952208 234.625 331.125 C234.36364258 331.90254639 234.10228516 332.68009277 233.83300781 333.48120117 C231.64947484 339.8842462 229.13391699 346.108787 226.4375 352.3125 C225.76528019 353.97693466 225.09692531 355.64295501 224.4375 357.3125 C223.7775 357.3125 223.1175 357.3125 222.4375 357.3125 C222.128125 358.59125 221.81875 359.87 221.5 361.1875 C220.96144756 363.41351675 220.4638 365.25989999 219.4375 367.3125 C218.7775 367.3125 218.1175 367.3125 217.4375 367.3125 C217.21964844 368.116875 217.00179688 368.92125 216.77734375 369.75 C215.05437364 374.33119166 212.63142112 378.20144712 210 382.3125 C209.46721436 383.14974609 208.93442871 383.98699219 208.38549805 384.84960938 C203.95939681 391.70309631 199.18383417 398.15740575 193.97900391 404.43896484 C192.79159421 405.88213589 191.6197195 407.33809864 190.45458984 408.79931641 C185.11310267 415.45418791 179.47579432 421.65995904 173.4375 427.6875 C172.52830811 428.59580566 171.61911621 429.50411133 170.68237305 430.43994141 C162.79325538 438.19333676 154.45410712 444.93323146 145.4375 451.3125 C144.53128906 451.98023438 143.62507813 452.64796875 142.69140625 453.3359375 C137.77143527 456.90675388 132.63095846 460.09687261 127.4375 463.25 C126.77733887 463.65250977 126.11717773 464.05501953 125.43701172 464.46972656 C120.67964152 467.3125 120.67964152 467.3125 118.4375 467.3125 C118.4375 467.9725 118.4375 468.6325 118.4375 469.3125 C116.54947917 469.96354167 114.66145833 470.61458333 112.7734375 471.265625 C110.27365498 472.30129432 110.27365498 472.30129432 107.6484375 474.234375 C104.09150957 476.53642568 100.66099216 477.91674199 96.6875 479.3125 C95.25988356 479.82403546 93.83279762 480.33705389 92.40625 480.8515625 C91.72175781 481.0980957 91.03726562 481.34462891 90.33203125 481.59863281 C87.89752408 482.51596515 85.55232398 483.60490201 83.1875 484.6875 C77.87900023 486.7947592 71.99145439 487.91343494 66.4375 486.3125 C62.17967363 483.02624034 60.68599928 480.97020322 59.88040161 475.59617615 C59.58260862 470.78253718 59.63233596 465.96886717 59.66796875 461.1484375 C59.65924324 459.35110979 59.64774757 457.55379361 59.63362122 455.75650024 C59.60326593 451.02996448 59.6076478 446.30410674 59.62023926 441.57751465 C59.62964122 435.87004004 59.60103205 430.16266108 59.57517719 424.45525551 C59.55534752 420.00607235 59.54181435 415.55723021 59.54936218 411.10800171 C59.56023494 393.09011438 58.7646502 379.16777896 47.4375 364.3125 C46.88320313 363.796875 46.32890625 363.28125 45.7578125 362.75 C44.4375 361.3125 44.4375 361.3125 44.4375 358.3125 C45.67669189 358.16216309 45.67669189 358.16216309 46.94091797 358.00878906 C50.05485524 357.62439541 53.16693916 357.22776685 56.27832031 356.82324219 C58.26771838 356.56824013 60.25885617 356.32692911 62.25 356.0859375 C69.91174684 355.07984953 76.4251885 353.52191581 83.4375 350.3125 C86.21683973 349.19681916 89.01487405 348.13137853 91.8125 347.0625 C92.49699219 346.794375 93.18148438 346.52625 93.88671875 346.25 C97.32737499 344.94054636 99.70238745 344.3125 103.4375 344.3125 C103.4375 343.6525 103.4375 342.9925 103.4375 342.3125 C105.18645933 341.20061864 106.9901122 340.17443546 108.8125 339.1875 C126.6225876 329.03721506 138.75300603 314.16856923 146.4375 295.3125 C146.84871094 294.33152344 147.25992187 293.35054688 147.68359375 292.33984375 C151.81690166 281.62034684 153.62683082 270.61881594 155.4375 259.3125 C156.0975 259.3125 156.7575 259.3125 157.4375 259.3125 C157.36795099 253.97759178 157.27967175 248.64341791 157.17504883 243.30908203 C157.14207596 241.49959558 157.11396089 239.6900131 157.09106445 237.88037109 C156.95795529 227.63379729 156.61082635 218.1573402 153.4375 208.3125 C153.13328125 207.21035156 152.8290625 206.10820312 152.515625 204.97265625 C148.73823597 193.12377084 142.81130264 181.26678652 133.65234375 172.62890625 C131.66645929 168.84231627 132.94155276 165.37843408 133.75 161.3125 C136.75701294 143.73722073 138.24712846 120.53954981 129.4375 104.3125 C115.41269823 104.15649333 104.04082603 105.6163207 91.265625 111.50732422 C88.71528516 112.63059088 86.09641528 113.48574353 83.4375 114.3125 C83.4375 114.9725 83.4375 115.6325 83.4375 116.3125 C81.91962891 116.90804687 81.91962891 116.90804687 80.37109375 117.515625 C75.73719005 119.49642367 71.80182497 122.34721027 67.77539062 125.34765625 C64.33006786 127.72187418 62.86269914 128.32818531 58.51953125 128.16796875 C57.15475605 127.90311999 55.79385116 127.61757006 54.4375 127.3125 C53.07646099 127.07908549 51.714449 126.85127961 50.3515625 126.62890625 C48.24232175 126.26065672 46.1341152 125.8879897 44.02734375 125.50585938 C29.45788303 122.98170684 15.08744165 122.00033478 0.31933594 122.10668945 C-2.35230821 122.12527696 -5.02360952 122.12719592 -7.6953125 122.12695312 C-9.41666965 122.13185913 -11.13802448 122.13768339 -12.859375 122.14453125 C-14.04064972 122.14620049 -14.04064972 122.14620049 -15.24578857 122.14790344 C-19.46463786 122.18416428 -23.40169721 122.53289376 -27.5625 123.3125 C-30.08217751 123.45896134 -32.6032618 123.58232323 -35.125 123.6875 C-43.27807891 124.11212968 -51.61188282 125.06084104 -59.11328125 128.47265625 C-62.15023577 129.51403619 -63.5259795 129.3200305 -66.5625 128.3125 C-68.56203409 127.19576856 -70.51736969 125.99832899 -72.4375 124.75 C-77.3540039 121.61754393 -82.34594129 118.72450802 -87.5 116 C-88.42111572 115.51261353 -88.42111572 115.51261353 -89.36083984 115.01538086 C-104.47192995 107.07680736 -116.62651081 104.24475629 -133.5625 103.3125 C-134.5525 107.9325 -135.5425 112.5525 -136.5625 117.3125 C-137.2225 117.3125 -137.8825 117.3125 -138.5625 117.3125 C-140.58097501 132.98823735 -141.70920443 150.10276501 -135.4609375 164.92578125 C-134.5625 167.3125 -134.5625 167.3125 -134.5625 170.3125 C-135.70893452 171.49265318 -136.86387921 172.66585658 -138.0625 173.79296875 C-143.59763184 179.40017262 -147.76335343 186.19147117 -150.74609375 193.4375 C-151.59623521 195.38997799 -152.56508561 197.24394472 -153.5625 199.125 C-158.51920776 208.94345943 -159.7050711 219.21101154 -159.765625 230.0625 C-159.77132507 230.87887939 -159.77702515 231.69525879 -159.78289795 232.53637695 C-159.79229008 234.25747405 -159.79885871 235.97858867 -159.80273438 237.69970703 C-159.81237108 240.27800629 -159.84342123 242.85548317 -159.875 245.43359375 C-159.96290566 259.31352287 -158.39190393 272.2041179 -153.5625 285.3125 C-152.54511899 288.44350977 -151.5355594 291.57696595 -150.52734375 294.7109375 C-149.61006471 297.49114105 -149.61006471 297.49114105 -147.5625 300.3125 C-147.5625 301.6325 -147.5625 302.9525 -147.5625 304.3125 C-146.9025 304.3125 -146.2425 304.3125 -145.5625 304.3125 C-144.35403897 306.19030912 -143.22281425 308.11793089 -142.125 310.0625 C-132.74328924 326.00174548 -117.87865635 339.59807203 -100.5625 346.3125 C-99.95277344 346.63863281 -99.34304687 346.96476562 -98.71484375 347.30078125 C-96.19664983 348.4844695 -93.77474735 349.06776606 -91.0625 349.6875 C-86.96807064 350.65955877 -83.11851702 351.81985296 -79.1875 353.3125 C-70.68465181 356.27544176 -61.63446825 356.9677539 -52.73217773 357.98706055 C-50.5625 358.3125 -50.5625 358.3125 -47.5625 359.3125 C-47.5625 359.9725 -47.5625 360.6325 -47.5625 361.3125 C-48.26375 361.9725 -48.965 362.6325 -49.6875 363.3125 C-56.56169434 369.93281785 -61.38391481 379.61022445 -61.875 389.125 C-62.08984375 391.40234375 -62.08984375 391.40234375 -62.5625 393.3125 C-64.9375 395.1875 -64.9375 395.1875 -68.5625 396.3125 C-69.73196167 396.68193726 -69.73196167 396.68193726 -70.92504883 397.05883789 C-84.50310614 401.08996011 -100.60151909 401.93507549 -113.48046875 395.34765625 C-121.95059607 389.75458105 -128.89767359 382.73912544 -134.5625 374.3125 C-139.53284184 366.94784296 -144.22677747 361.3542337 -151.5625 356.3125 C-152.27148438 355.755625 -152.98046875 355.19875 -153.7109375 354.625 C-162.195214 348.25413533 -171.30242498 347.77525925 -181.578125 349.0234375 C-182.56039062 349.16652344 -182.56039062 349.16652344 -183.5625 349.3125 C-183.88686899 351.65214219 -183.88686899 351.65214219 -183.5625 354.3125 C-181.96195032 356.37634754 -181.96195032 356.37634754 -179.6875 358.125 C-178.86765625 358.81078125 -178.0478125 359.4965625 -177.203125 360.203125 C-174.61962552 362.26686719 -172.03033481 364.3230019 -169.4375 366.375 C-156.37337989 376.83839249 -149.25455225 389.34147598 -144.5625 405.3125 C-144.5625 405.9725 -144.5625 406.6325 -144.5625 407.3125 C-143.9025 407.3125 -143.2425 407.3125 -142.5625 407.3125 C-141.55441893 408.75822105 -140.60737826 410.24661688 -139.6875 411.75 C-132.80222982 421.88385276 -121.34197071 429.12222668 -109.5625 432.3125 C-103.54726499 433.22829153 -97.70371016 433.46527781 -91.625 433.4375 C-90.78259766 433.44136719 -89.94019531 433.44523437 -89.07226562 433.44921875 C-84.29552292 433.44186426 -79.67395914 433.14474209 -74.93727112 432.54324341 C-72.5350602 432.30983383 -70.19803118 432.26416347 -67.78540039 432.28173828 C-66.99009415 432.2861795 -66.1947879 432.29062073 -65.37538147 432.29519653 C-64.77713058 432.30090668 -64.1788797 432.30661682 -63.5625 432.3125 C-63.46099615 438.91433567 -63.39099106 445.51596976 -63.34277344 452.1184082 C-63.3226706 454.36392741 -63.29538395 456.60939435 -63.26074219 458.85473633 C-63.2121669 462.0842784 -63.18951763 465.31312775 -63.171875 468.54296875 C-63.15122986 469.54522995 -63.13058472 470.54749115 -63.10931396 471.5801239 C-63.1070679 478.57274748 -63.1070679 478.57274748 -65.44628906 482.37231445 C-69.68581232 486.25919624 -72.47703305 487.64029369 -78.34179688 487.54223633 C-82.21873171 487.14115941 -85.61120201 485.73826579 -89.1875 484.25 C-89.96585205 483.93708008 -90.7442041 483.62416016 -91.54614258 483.30175781 C-97.67112607 480.79389056 -103.58553964 477.9549164 -109.44921875 474.890625 C-111.61394761 473.79332204 -113.82112804 472.77751269 -116.0546875 471.828125 C-132.29066121 464.81302723 -147.19704749 453.7444671 -160.5625 442.3125 C-161.71825952 441.34186359 -162.8745394 440.37184655 -164.03125 439.40234375 C-174.62267336 430.48220412 -183.91569795 421.15904849 -192.5625 410.3125 C-193.50999161 409.16523808 -194.45929314 408.01946914 -195.41015625 406.875 C-219.5625 377.58728724 -219.5625 377.58728724 -219.5625 369.3125 C-220.2225 369.3125 -220.8825 369.3125 -221.5625 369.3125 C-225.46147834 362.01228523 -228.69125049 354.7070302 -231.46923828 346.921875 C-232.9174982 342.88982223 -234.60801494 339.12164427 -236.5625 335.3125 C-240.14041502 327.0743825 -242.52277788 318.9562376 -244.06640625 310.11328125 C-244.50659768 307.62810601 -244.99050401 305.15918714 -245.5 302.6875 C-246.42899392 298.07202227 -247.28921295 293.4456122 -248.125 288.8125 C-248.31533813 287.78068604 -248.31533813 287.78068604 -248.50952148 286.72802734 C-250.49278778 275.60443332 -250.71994209 264.673005 -250.69287109 253.40209961 C-250.68756152 250.78037599 -250.6928141 248.15882745 -250.69921875 245.53710938 C-250.70284952 237.31802074 -250.58760094 229.12466994 -250.11328125 220.91796875 C-250.0740152 220.23729843 -250.03474915 219.55662811 -249.99429321 218.85533142 C-249.55148003 212.01555847 -248.47583469 205.45208801 -246.5625 198.875 C-245.71163023 195.84377644 -245.21668546 193.06512579 -244.77734375 189.9609375 C-243.61253229 182.83899359 -241.45919163 176.18902951 -239.125 169.375 C-238.72990234 168.18326172 -238.33480469 166.99152344 -237.92773438 165.76367188 C-236.17842384 160.57977493 -234.47782618 155.96043994 -231.5625 151.3125 C-230.90178566 149.76476365 -230.27639361 148.20146299 -229.6875 146.625 C-227.63895101 141.34482529 -225.17037606 136.33586782 -222.5625 131.3125 C-221.9025 131.3125 -221.2425 131.3125 -220.5625 131.3125 C-220.3253125 130.31476563 -220.088125 129.31703125 -219.84375 128.2890625 C-218.60020631 123.96057389 -216.48955699 120.45215155 -214.0625 116.6875 C-213.61962646 115.99164795 -213.17675293 115.2957959 -212.72045898 114.57885742 C-190.54881767 80.25300072 -160.31898244 52.6452391 -125.4375 31.6875 C-124.73906982 31.26138428 -124.04063965 30.83526855 -123.32104492 30.39624023 C-119.39617289 28.08902947 -116.18743652 26.73032916 -111.5625 26.3125 C-111.5625 25.6525 -111.5625 24.9925 -111.5625 24.3125 C-108.47440305 22.54787317 -107.32937864 22.3125 -103.5625 22.3125 C-103.5625 21.6525 -103.5625 20.9925 -103.5625 20.3125 C-99.75105265 18.87219835 -95.93815419 17.4357761 -92.125 16 C-90.52108398 15.39381836 -90.52108398 15.39381836 -88.88476562 14.77539062 C-71.62610384 8.28360041 -71.62610384 8.28360041 -62.5625 7.3125 C-62.2325 6.9825 -61.9025 6.6525 -61.5625 6.3125 C-59.18906588 5.78406365 -56.8284329 5.31021781 -54.4375 4.875 C-53.71828369 4.74303223 -52.99906738 4.61106445 -52.25805664 4.47509766 C-34.92991638 1.36107705 -17.59313439 0.06418644 0 0 Z " fill="#020202" transform="translate(308.5625,46.6875)"/>
<path d="M0 0 C0.66 0.33 1.32 0.66 2 1 C-6.25 9.25 -14.5 17.5 -23 26 C-23.66 25.67 -24.32 25.34 -25 25 C-17.00333285 16.24452502 -8.96402121 7.77491636 0 0 Z " fill="#333333" transform="translate(144,106)"/>
</svg>
