<svg version="1.1" id="Layer_1" xmlns="http://www.w3.org/2000/svg" xmlns:xlink="http://www.w3.org/1999/xlink" x="0px" y="0px"
	 width="100%" viewBox="0 0 600 600" enable-background="new 0 0 600 600" xml:space="preserve">
<path fill="#FFFFFF" opacity="1.000000" stroke="none" 
	d="
M400.000000,601.000000 
	C266.666656,601.000000 133.833328,601.000000 1.000000,601.000000 
	C1.000000,401.000000 1.000000,201.000000 1.000000,1.000000 
	C201.000000,1.000000 401.000000,1.000000 601.000000,1.000000 
	C601.000000,201.000000 601.000000,401.000000 601.000000,601.000000 
	C534.166687,601.000000 467.333344,601.000000 400.000000,601.000000 
M570.931885,201.104355 
	C570.937439,186.626587 570.946472,172.148819 570.947388,157.671051 
	C570.948120,146.449875 568.121094,135.958847 562.687805,126.169762 
	C547.484924,98.778870 516.356689,89.605209 491.744598,106.101288 
	C476.989075,115.991043 463.232025,127.370461 448.391174,138.292770 
	C399.252472,175.574432 350.113800,212.856079 301.007629,250.113068 
	C265.657471,223.300140 230.804611,196.830261 195.910797,170.414444 
	C181.989761,159.875732 167.978333,149.456406 153.665253,138.411926 
	C140.110428,128.192291 126.661865,117.827538 112.966576,107.799744 
	C102.341698,100.020126 90.282097,96.388016 77.176651,98.629517 
	C52.497993,102.850456 38.878395,119.297256 33.188889,142.225281 
	C28.340889,161.762146 31.565849,181.978439 31.112677,202.826141 
	C31.092220,291.446625 30.986063,380.067230 31.119974,468.687500 
	C31.148481,487.552734 48.029728,503.873657 67.010094,503.963867 
	C94.495346,504.094513 121.981682,504.004608 149.467529,503.984039 
	C150.882889,503.982971 152.298065,503.749573 153.922760,503.605804 
	C153.922760,501.105194 153.922760,499.115814 153.922760,497.126404 
	C153.922775,437.990143 153.916824,378.853851 153.929688,319.717590 
	C153.931458,311.556915 154.026367,303.396210 154.660309,295.502075 
	C203.432022,332.749695 252.203735,369.997314 300.920105,407.202698 
	C302.189667,406.299713 303.017670,405.747467 303.806793,405.144348 
	C347.048584,372.092163 390.272675,339.016846 433.546539,306.006744 
	C438.263184,302.408783 443.264832,299.184387 448.110779,296.755310 
	C448.110779,365.655060 448.110779,434.554810 448.110779,503.730347 
	C449.529846,503.844482 450.484741,503.988007 451.439697,503.988373 
	C479.584198,503.999359 507.728699,504.008118 535.873108,503.967316 
	C537.685303,503.964691 539.533020,503.721924 541.303162,503.321075 
	C559.265320,499.253235 570.926697,484.760956 570.933105,466.318817 
	C570.963440,379.387268 570.948547,292.455750 570.941956,205.524216 
	C570.941833,204.361679 570.840515,203.199158 570.931885,201.104355 
z"/>
<path fill="#919191" opacity="1.000000" stroke="none" 
	d="
M448.134277,295.786713 
	C443.264832,299.184387 438.263184,302.408783 433.546539,306.006744 
	C390.272675,339.016846 347.048584,372.092163 303.806793,405.144348 
	C303.017670,405.747467 302.189667,406.299713 300.920105,407.202698 
	C252.203735,369.997314 203.432022,332.749695 154.342529,295.045349 
	C154.012650,294.373016 154.000534,294.157410 153.984589,293.478943 
	C153.989838,241.671677 153.998932,190.327209 154.008041,138.982742 
	C167.978333,149.456406 181.989761,159.875732 195.910797,170.414444 
	C230.804611,196.830261 265.657471,223.300140 301.007629,250.113068 
	C350.113800,212.856079 399.252472,175.574432 448.702148,138.649200 
	C449.008789,190.670425 449.004395,242.335220 448.916565,294.234589 
	C448.600220,294.908356 448.367249,295.347534 448.134277,295.786713 
z"/>
<path fill="#9C9C9C" opacity="1.000000" stroke="none" 
	d="
M153.988434,293.941772 
	C154.000534,294.157410 154.012650,294.373016 154.051453,294.912048 
	C154.026367,303.396210 153.931458,311.556915 153.929688,319.717590 
	C153.916824,378.853851 153.922775,437.990143 153.922760,497.126404 
	C153.922760,499.115814 153.922760,501.105194 153.922760,503.605804 
	C152.298065,503.749573 150.882889,503.982971 149.467529,503.984039 
	C121.981682,504.004608 94.495346,504.094513 67.010094,503.963867 
	C48.029728,503.873657 31.148481,487.552734 31.119974,468.687500 
	C30.986063,380.067230 31.092220,291.446625 31.546993,202.416672 
	C39.776550,207.872437 47.600178,213.700394 55.361866,219.609695 
	C81.707047,239.667404 108.004395,259.788055 134.380707,279.804688 
	C140.797363,284.674194 147.446289,289.237610 153.988434,293.941772 
z"/>
<path fill="#6E6E6E" opacity="1.000000" stroke="none" 
	d="
M448.122528,296.270996 
	C448.367249,295.347534 448.600220,294.908356 449.220917,294.088715 
	C460.123901,285.639465 470.608704,277.530640 481.160706,269.510254 
	C502.921295,252.970428 524.697449,236.450836 546.510071,219.979736 
	C554.539917,213.916245 562.690796,208.013000 570.786499,202.036621 
	C570.840515,203.199158 570.941833,204.361679 570.941956,205.524216 
	C570.948547,292.455750 570.963440,379.387268 570.933105,466.318817 
	C570.926697,484.760956 559.265320,499.253235 541.303162,503.321075 
	C539.533020,503.721924 537.685303,503.964691 535.873108,503.967316 
	C507.728699,504.008118 479.584198,503.999359 451.439697,503.988373 
	C450.484741,503.988007 449.529846,503.844482 448.110779,503.730347 
	C448.110779,434.554810 448.110779,365.655060 448.122528,296.270996 
z"/>
<path fill="#737373" opacity="1.000000" stroke="none" 
	d="
M153.984589,293.478943 
	C147.446289,289.237610 140.797363,284.674194 134.380707,279.804688 
	C108.004395,259.788055 81.707047,239.667404 55.361866,219.609695 
	C47.600178,213.700394 39.776550,207.872437 31.650253,201.952042 
	C31.565849,181.978439 28.340889,161.762146 33.188889,142.225281 
	C38.878395,119.297256 52.497993,102.850456 77.176651,98.629517 
	C90.282097,96.388016 102.341698,100.020126 112.966576,107.799744 
	C126.661865,117.827538 140.110428,128.192291 153.836639,138.697327 
	C153.998932,190.327209 153.989838,241.671677 153.984589,293.478943 
z"/>
<path fill="#818181" opacity="1.000000" stroke="none" 
	d="
M570.859131,201.570496 
	C562.690796,208.013000 554.539917,213.916245 546.510071,219.979736 
	C524.697449,236.450836 502.921295,252.970428 481.160706,269.510254 
	C470.608704,277.530640 460.123901,285.639465 449.304321,293.854126 
	C449.004395,242.335220 449.008789,190.670425 449.019684,138.542999 
	C463.232025,127.370461 476.989075,115.991043 491.744598,106.101288 
	C516.356689,89.605209 547.484924,98.778870 562.687805,126.169762 
	C568.121094,135.958847 570.948120,146.449875 570.947388,157.671051 
	C570.946472,172.148819 570.937439,186.626587 570.859131,201.570496 
z"/>
</svg>