<?xml version="1.0" encoding="UTF-8"?>
<svg version="1.1" xmlns="http://www.w3.org/2000/svg" width="980" height="980">
<path d="M0 0 C4.3864591 0.01709089 8.77237202 0.00691886 13.15881252 -0.01031685 C33.0765149 -0.07676591 52.51927887 0.51112052 72.26660156 3.39111328 C73.08312195 3.50453064 73.89964233 3.617948 74.74090576 3.73480225 C79.57833814 4.40799157 84.393445 5.17346999 89.20410156 6.01611328 C90.27689865 6.20219147 90.27689865 6.20219147 91.37136841 6.39202881 C161.06746951 18.60683874 227.16972052 46.05184124 285.26660156 86.39111328 C286.05260742 86.93622559 286.83861328 87.48133789 287.6484375 88.04296875 C298.9840943 95.95416403 309.71514717 104.46798589 320.26660156 113.39111328 C321.47088462 114.39909788 322.67530589 115.40691737 323.87988281 116.41455078 C339.95910561 129.94721876 356.0515465 144.42400331 369.64550781 160.49267578 C371.54753806 162.72011361 373.53267876 164.861343 375.51660156 167.01611328 C380.54376584 172.5943158 385.13471373 178.4654866 389.72167969 184.40478516 C391.35199207 186.50090108 393.00269613 188.57969499 394.65722656 190.65673828 C402.77354183 200.88707578 410.242938 211.38367664 417.26660156 222.39111328 C417.79108887 223.20950684 418.31557617 224.02790039 418.85595703 224.87109375 C438.4700589 255.60908397 454.80866918 288.11999299 467.26660156 322.39111328 C467.69424805 323.56689941 468.12189453 324.74268555 468.5625 325.95410156 C477.95437707 352.14257936 484.88344989 378.98436157 489.64160156 406.39111328 C489.98143066 408.33377075 489.98143066 408.33377075 490.328125 410.31567383 C491.05898967 414.66297596 491.67487733 419.0229338 492.26660156 423.39111328 C492.39757233 424.33252167 492.52854309 425.27393005 492.66348267 426.24386597 C495.30929884 445.8222083 495.76893419 465.18575471 495.71264648 484.90600586 C495.70349005 488.25879984 495.71033104 491.6108949 495.7331543 494.96362305 C496.32531068 582.50960764 471.83835308 669.43004884 382.26660156 805.39111328 C381.83589355 805.90673828 381.40518555 806.42236328 380.96142578 806.95361328 C366.90104086 823.75277695 351.91874901 840.5965223 335.16503906 854.77001953 C332.93760123 856.67204978 330.79637185 858.65719048 328.64160156 860.64111328 C322.95262695 865.77869497 316.93013923 870.44414528 310.87402344 875.13476562 C308.72773556 876.8122865 306.62405624 878.54018057 304.51660156 880.26611328 C242.85506314 929.5152641 166.72038845 961.33810369 89.20410156 974.76611328 C88.54307434 974.88185699 87.88204712 974.99760071 87.20098877 975.11685181 C82.23566917 975.97355578 77.25707947 976.69791954 72.26660156 977.39111328 C70.91613739 977.58806793 70.91613739 977.58806793 69.53839111 977.78900146 C49.85947201 980.5952418 30.36917247 980.86016835 10.53320312 980.78222656 C6.14674403 980.76513567 1.7608311 980.7753077 -2.6256094 980.79254341 C-22.54331178 980.85899247 -41.98607574 980.27110605 -61.73339844 977.39111328 C-62.95817902 977.22098724 -62.95817902 977.22098724 -64.20770264 977.04742432 C-69.04513502 976.37423499 -73.86024188 975.60875657 -78.67089844 974.76611328 C-79.3860965 974.64206116 -80.10129456 974.51800903 -80.83816528 974.39019775 C-150.53426638 962.17538782 -216.6365174 934.73038532 -274.73339844 894.39111328 C-275.5194043 893.84600098 -276.30541016 893.30088867 -277.11523438 892.73925781 C-288.45089117 884.82806253 -299.18194405 876.31424067 -309.73339844 867.39111328 C-310.93768149 866.38312868 -312.14210277 865.37530919 -313.34667969 864.36767578 C-329.42590248 850.83500781 -345.51834338 836.35822325 -359.11230469 820.28955078 C-361.01433493 818.06211295 -362.99947563 815.92088357 -364.98339844 813.76611328 C-370.01056271 808.18791076 -374.6015106 802.31673996 -379.18847656 796.37744141 C-380.81878895 794.28132548 -382.469493 792.20253158 -384.12402344 790.12548828 C-392.2403387 779.89515078 -399.70973487 769.39854993 -406.73339844 758.39111328 C-407.25788574 757.57271973 -407.78237305 756.75432617 -408.32275391 755.91113281 C-427.93685577 725.1731426 -444.27546605 692.66223357 -456.73339844 658.39111328 C-457.37486816 656.62743408 -457.37486816 656.62743408 -458.02929688 654.828125 C-467.42117394 628.6396472 -474.35024676 601.79786499 -479.10839844 574.39111328 C-479.44822754 572.44845581 -479.44822754 572.44845581 -479.79492188 570.46655273 C-480.52578654 566.1192506 -481.14167421 561.75929276 -481.73339844 557.39111328 C-481.92985458 555.9790007 -481.92985458 555.9790007 -482.13027954 554.5383606 C-484.77609571 534.96001826 -485.23573107 515.59647185 -485.17944336 495.8762207 C-485.17028693 492.52342672 -485.17712792 489.17133166 -485.19995117 485.81860352 C-485.79210756 398.27261893 -461.30514995 311.35217772 -371.73339844 175.39111328 C-371.30269043 174.87548828 -370.87198242 174.35986328 -370.42822266 173.82861328 C-356.36783773 157.02944961 -341.38554589 140.18570427 -324.63183594 126.01220703 C-322.40439811 124.11017678 -320.26316872 122.12503608 -318.10839844 120.14111328 C-312.41942382 115.00353159 -306.39693611 110.33808128 -300.34082031 105.64746094 C-298.19453243 103.96994006 -296.09085311 102.24204599 -293.98339844 100.51611328 C-232.32186001 51.26696246 -156.18718532 19.44412288 -78.67089844 6.01611328 C-78.00987122 5.90036957 -77.34884399 5.78462585 -76.66778564 5.66537476 C-71.70246604 4.80867078 -66.72387634 4.08430702 -61.73339844 3.39111328 C-60.38293427 3.19415863 -60.38293427 3.19415863 -59.00518799 2.9932251 C-39.32626889 0.18698477 -19.83596934 -0.07794179 0 0 Z " fill="#FEFEFE" transform="translate(484.7333984375,-0.39111328125)"/>
<path d="M0 0 C9.70413529 7.70195488 18.26473346 16.56320732 26.99359417 25.33033848 C28.80757155 27.14488076 30.62199094 28.95898126 32.43681622 30.77267551 C36.32528227 34.66068813 40.21068881 38.551717 44.0932703 42.44560528 C49.70665557 48.075327 55.32563356 53.69943982 60.94594 59.32225095 C70.066985 68.44766036 79.18356577 77.57751599 88.29730511 86.71022129 C97.14422874 95.57553634 105.99327537 104.43872346 114.84515667 113.29908848 C115.3918739 113.84633115 115.93859113 114.39357383 116.50187554 114.95739961 C119.24493314 117.70306752 121.98803223 120.44869396 124.73115194 123.19429982 C147.44526563 145.92910689 170.1521194 168.67115177 192.85418987 191.41798496 C195.84604234 190.07427853 197.92758473 188.59156917 200.23610306 186.27099419 C200.88867854 185.61993401 201.54125402 184.96887383 202.21360451 184.29808456 C202.92205716 183.58107775 203.63050981 182.86407094 204.36043072 182.12533665 C205.11971148 181.36494247 205.87899225 180.60454829 206.66128153 179.82111186 C209.21219925 177.2641073 211.75589465 174.70003528 214.29974651 172.13600254 C216.12437138 170.30426718 217.94946623 168.47299987 219.77499676 166.64216709 C223.71051767 162.69404687 227.64257564 158.74250511 231.57252979 154.78884411 C237.26453492 149.06286755 242.96397356 143.34433477 248.66563814 137.62797829 C257.92910287 128.3406137 267.18956173 119.05025937 276.44671917 109.75660801 C277.00081671 109.20033022 277.55491425 108.64405244 278.12580263 108.07091775 C285.97842106 100.1871191 293.82802902 92.30032986 301.67641079 84.41231384 C302.22838599 83.85755201 302.78036119 83.30279018 303.34906292 82.73121738 C303.90036076 82.17713248 304.45165861 81.62304758 305.01966245 81.05217222 C314.23004738 71.79562965 323.44821642 62.54688395 332.67273515 53.30442637 C338.35680782 47.60867868 344.0343015 41.90652813 349.70337015 36.19584581 C354.0560384 31.81238049 358.41914568 27.43944356 362.78610897 23.0702219 C364.57013696 21.28191284 366.35073766 19.49017683 368.12756062 17.69470882 C385.28085782 0.36848009 385.28085782 0.36848009 394.85418987 -4.58201504 C395.74528485 -5.06389373 396.63637983 -5.54577242 397.55447769 -6.04225349 C415.16707759 -15.41081039 437.51250066 -16.72212025 456.55560589 -10.91014004 C477.47876848 -3.85275232 493.62188643 9.74436213 503.72918987 29.48048496 C508.68083456 39.86518423 510.96713408 50.10967257 510.99399757 61.62213135 C510.996949 62.31595955 510.99990042 63.00978775 511.00294128 63.72464105 C511.01158343 66.04287992 511.01320843 68.36106862 511.01481915 70.67932224 C511.01955348 72.36100508 511.02470485 74.04268679 511.03023678 75.7243672 C511.04411021 80.34090304 511.05171717 84.95743101 511.05820978 89.57398236 C511.06459168 93.53494147 511.07466017 97.49588775 511.08477043 101.45683884 C511.11805352 114.50394694 511.1396072 127.55106285 511.15797028 140.59819946 C511.16276787 143.9966698 511.16775087 147.39513984 511.17277551 150.79360986 C511.20374681 171.91068155 511.23042364 193.02775602 511.24719429 214.14484406 C511.25114359 219.0334985 511.25514662 223.92215289 511.25921917 228.81080723 C511.26022753 230.02581319 511.26123589 231.24081916 511.26227481 232.49264348 C511.27927667 252.16879164 511.32038291 271.84481393 511.37124216 291.52090066 C511.42306079 311.73486096 511.45214203 331.94875658 511.45939118 352.16278273 C511.46404774 363.50698867 511.47873987 374.85098839 511.51913548 386.19512844 C511.55350132 395.85748089 511.56734814 405.51958987 511.55471133 415.18199991 C511.5489001 420.10765139 511.55264011 425.03278834 511.58288097 429.95836163 C511.61039777 434.47732071 511.60962977 438.99540348 511.58737052 443.51438338 C511.58416841 445.13962938 511.59089277 446.76493571 511.60916775 448.39008211 C511.76873186 463.50963063 508.45726168 477.05755088 497.85418987 488.41798496 C497.37981487 489.01610996 496.90543987 489.61423496 496.41668987 490.23048496 C490.06097735 497.64548291 479.28006119 502.5328107 469.85418987 504.41798496 C431.90418987 504.41798496 393.95418987 504.41798496 354.85418987 504.41798496 C354.35918987 380.66798496 354.35918987 380.66798496 353.85418987 254.41798496 C318.13749056 290.29289892 318.13749056 290.29289892 282.44281292 326.18971348 C275.51007366 333.14051914 275.51007366 333.14051914 272.25636578 336.39758396 C269.99690868 338.66074993 267.74315154 340.92942579 265.49281597 343.20166111 C262.61279468 346.10933248 259.72307105 349.0070293 256.82637656 351.89808738 C255.77081731 352.95482342 254.71856667 354.01487862 253.67024267 355.07879269 C247.27354392 361.5660875 240.752372 366.82975167 232.85418987 371.41798496 C231.41666664 372.31378101 229.97916238 373.20960751 228.54168987 374.10548496 C212.88662502 382.66773163 191.17398335 384.08363931 173.97918987 379.91798496 C156.71266789 374.51264677 144.10260882 364.97854657 131.44192791 352.26641941 C130.42074182 351.2482596 129.3991235 350.23053314 128.37711489 349.21319896 C125.59028776 346.43659885 122.80966417 343.65386002 120.03009415 340.86999762 C117.02343988 337.8608665 114.01103701 334.85749922 110.99940777 331.85334873 C105.10843873 325.9751015 99.22293098 320.09141583 93.33949207 314.20563277 C88.55589333 309.42024813 83.77052599 304.63663901 78.98390865 299.8542738 C78.3016349 299.17259523 77.61936114 298.49091666 76.91641242 297.78858117 C75.53020851 296.40358905 74.14400343 295.01859811 72.7577972 293.63360832 C59.77104191 280.65771857 46.7907999 267.67532856 33.81252821 254.69095448 C21.94881333 242.82206964 10.07690392 230.96142036 -1.79889591 219.10462859 C-14.00567479 206.91723727 -26.20687285 194.72428454 -38.40208375 182.52531749 C-45.24378645 175.68170436 -52.08766225 168.84029927 -58.93739414 162.00472164 C-64.7676528 156.18638932 -70.59260913 150.36281113 -76.41085769 144.53246792 C-79.37707314 141.56037305 -82.34560947 138.59070225 -85.32076931 135.62755871 C-88.04865311 132.9105644 -90.76941243 130.18663461 -93.48485677 127.45720956 C-94.92473032 126.01345576 -96.37192574 124.57701533 -97.81944048 123.14092273 C-114.02978976 106.79610925 -123.28311543 88.15055091 -123.52081013 64.98048496 C-123.35244719 42.80807651 -116.0081361 24.12393211 -100.73565388 7.85939121 C-73.55824658 -17.76033663 -30.66912293 -22.61104701 0 0 Z " fill="#EB4132" transform="translate(296.1458101272583,244.58201503753662)"/>
<path d="M0 0 C0.33 0 0.66 0 1 0 C1.1959375 1.05316406 1.391875 2.10632813 1.59375 3.19140625 C5.75460933 23.87737316 15.72529902 39.44591291 33.44129825 51.28606677 C53.15618885 64.53757738 71.58814901 79.43377614 89.5625 94.9375 C90.35282907 95.61687905 91.14315813 96.29625811 91.95743656 96.9962244 C133.23682316 132.64691295 159.73831513 169.58197581 163.94572449 224.77693176 C165.95885459 253.63336168 165.52963849 282.49511679 164.375 311.375 C164.317912 312.83861561 164.26086406 314.30223278 164.20385599 315.7658515 C162.71164679 353.61499134 159.9597839 391.32506029 156 429 C141.08279664 429.09373717 126.16561625 429.16412238 111.24818039 429.20724869 C104.32062644 429.22781162 97.39325625 429.25581092 90.46582031 429.30175781 C83.77440124 429.34611787 77.08321202 429.36917043 70.39163971 429.37950897 C67.84489192 429.38687216 65.29815397 429.40125046 62.75148773 429.42292023 C59.17101411 429.45216173 55.59131693 429.45594722 52.01074219 429.45410156 C50.96919983 429.46848267 49.92765747 429.48286377 48.85455322 429.49768066 C35.01870159 429.42103008 24.22617069 424.11841881 14.3125 414.75 C2.00004727 401.85839008 -0.62260102 386.90415187 -0.48101807 369.66238403 C-0.48276638 368.05812556 -0.48627603 366.45386821 -0.49137473 364.84961689 C-0.50024765 360.4800908 -0.48441803 356.11096272 -0.46426249 351.74148726 C-0.44689001 347.01503707 -0.45284108 342.28860695 -0.45587158 337.56213379 C-0.45796278 329.38608667 -0.44547787 321.21016784 -0.42292023 313.03415298 C-0.39032759 301.21322106 -0.37998579 289.39235079 -0.37496826 277.57137881 C-0.36622698 258.38983592 -0.33964313 239.20836131 -0.30175781 220.02685547 C-0.26500748 201.40055685 -0.23671052 182.77427681 -0.21972656 164.14794922 C-0.21867567 162.99864705 -0.21762477 161.84934489 -0.21654204 160.66521539 C-0.21132165 154.89915288 -0.20626688 149.13309025 -0.20129442 143.36702752 C-0.15986875 95.57797118 -0.08945217 47.78898893 0 0 Z " fill="#4285F4" transform="translate(173,320)"/>
<path d="M0 0 C0.33 0 0.66 0 1 0 C1.13742977 49.15651354 1.24310703 98.31300762 1.30639198 147.4696756 C1.31389593 153.27731009 1.32166189 159.0849442 1.32958984 164.89257812 C1.33116371 166.04873969 1.33273757 167.20490125 1.33435912 168.39609802 C1.36044407 187.09947547 1.4077389 205.8027419 1.46291678 224.50605357 C1.51908983 243.70729461 1.55236622 262.90847764 1.56453097 282.10979748 C1.57275044 293.95145767 1.5986805 305.79280403 1.6474988 317.63436759 C1.67929348 325.76223199 1.68878273 333.88993492 1.68100826 342.01785696 C1.67717746 346.70247057 1.68291532 351.38653703 1.71523285 356.07105255 C1.74467265 360.37009387 1.745752 364.66822595 1.72539337 368.96731126 C1.72288149 370.51269168 1.73028866 372.05813148 1.74929909 373.60339701 C1.92116881 388.45174472 -1.61643244 401.87474904 -12 413 C-12.474375 413.598125 -12.94875 414.19625 -13.4375 414.8125 C-19.67555617 422.0902322 -30.61732331 427.39048614 -40 429 C-41.65403864 429.08440725 -43.31092737 429.12206456 -44.96711731 429.12025452 C-45.94161835 429.12162918 -46.91611938 429.12300385 -47.92015076 429.12442017 C-48.97750931 429.12082489 -50.03486786 429.11722961 -51.12426758 429.11352539 C-52.24665833 429.11367142 -53.36904907 429.11381744 -54.52545166 429.1139679 C-58.23183125 429.11327176 -61.93816045 429.10549328 -65.64453125 429.09765625 C-68.21571322 429.09579101 -70.78689555 429.09436761 -73.358078 429.09336853 C-79.43175941 429.08994173 -85.50542005 429.08206183 -91.57909364 429.07201904 C-98.49564138 429.06083146 -105.41218999 429.05534079 -112.32874453 429.05032361 C-126.55250604 429.0398785 -140.77625238 429.02229555 -155 429 C-159.12992391 390.65716406 -161.93709286 352.28257292 -163.47486371 313.75424945 C-163.53318741 312.29559635 -163.59225247 310.83697269 -163.65206653 309.37837994 C-166.48878369 240.14797652 -167.64311258 176.61095576 -117.98582894 122.60920542 C-108.21790974 112.21856065 -97.73238239 102.68062955 -86.9375 93.375 C-86.12585089 92.67315032 -85.31420178 91.97130063 -84.47795725 91.24818277 C-66.26705333 75.54855109 -47.5057581 60.59306922 -27.56527042 47.13729191 C-20.46505799 42.28031316 -15.32248672 37.49795706 -11 30 C-10.57812881 29.28550879 -10.15625761 28.57101757 -9.72160244 27.83487511 C-8.66342361 26.00097816 -7.69366924 24.14516976 -6.75 22.25 C-6.41355469 21.5796875 -6.07710937 20.909375 -5.73046875 20.21875 C-2.60177476 13.69143548 -1.07462192 7.16414613 0 0 Z " fill="#00AE44" transform="translate(806,320)"/>
<path d="M0 0 C1.66676816 1.33831409 3.31778111 2.69635272 4.9576416 4.06750488 C8.933918 7.37774013 12.99801245 10.39882733 17.24182129 13.35461426 C26.90232803 20.71767455 34.77058142 28.37587901 36.772717 40.80233622 C38.27200146 53.75732314 37.8118825 66.84963807 37.43345451 79.85785484 C37.28188584 85.95898138 37.26920796 92.06048931 37.24084473 98.16320801 C37.1666853 109.68234747 36.97037601 121.19592283 36.72845697 132.71262789 C36.45879808 145.83910839 36.32789819 158.96587603 36.20776653 172.09444332 C35.95790207 199.06602961 35.53665507 226.03270112 35 253 C31.06877691 251.40552992 28.41543034 248.69810468 25.47892761 245.73962402 C24.93325286 245.19777482 24.3875781 244.65592561 23.82536775 244.09765673 C21.99752194 242.2801321 20.17690653 240.45553485 18.35620117 238.63085938 C17.04719548 237.32620087 15.73777243 236.02196099 14.42796326 234.71810913 C10.86932014 231.17287254 7.31712694 227.62123919 3.76644683 224.0680294 C0.79890548 221.09941857 -2.17160674 218.13378937 -5.14207762 215.16811037 C-12.15543057 208.16586024 -19.16343205 201.15828544 -26.16821289 194.14746094 C-33.38259193 186.92705277 -40.60607249 179.71584387 -47.83412153 172.50912237 C-54.04606563 166.31483135 -60.25214673 160.11470832 -66.45364588 153.90996027 C-70.15438641 150.20741124 -73.85729027 146.50709512 -77.56589699 142.81242371 C-81.05855038 139.33240278 -84.5437872 135.84511651 -88.02362633 132.35228348 C-89.29683332 131.07672221 -90.57256364 129.80367346 -91.85108948 128.53344345 C-109.62524098 110.86625779 -121.11164803 92.23359229 -121.375 66.5625 C-121.20663706 44.39009155 -113.86232597 25.70594714 -98.58984375 9.44140625 C-72.13589816 -15.49632526 -30.61681965 -20.92103031 0 0 Z " fill="#C5221D" transform="translate(294,243)"/>
<path d="M0 0 C14.76588171 12.82200754 23.83696118 30.39120199 26.125 49.75 C27.67896061 74.30204547 22.61988459 93.30081912 6.52440643 112.16320062 C1.87118194 117.43953319 -3.19774127 122.33939915 -8.18164062 127.29956055 C-9.50194723 128.62094245 -10.82182019 129.94275776 -12.14129639 131.26496887 C-15.69401773 134.82249756 -19.25289068 138.37381095 -22.81311226 141.9238317 C-26.54485573 145.64674153 -30.27127579 149.3749731 -33.99841309 153.10249329 C-40.24553581 159.34868271 -46.49650191 165.5910043 -52.75 171.83081055 C-59.98750537 179.05252852 -67.21970787 186.27952273 -74.44895792 193.50950402 C-81.40959753 200.47075265 -88.37308213 207.42914761 -95.33818054 214.38593483 C-98.3022747 217.34649219 -101.26551241 220.30790292 -104.22810364 223.26996422 C-107.70595965 226.74681995 -111.18633954 230.22112923 -114.66873932 233.69343376 C-115.94956789 234.97132915 -117.22953893 236.25008465 -118.50861359 237.52973557 C-120.24615946 239.26776824 -121.98672301 241.00271895 -123.72814941 242.73686218 C-124.24048457 243.25074594 -124.75281972 243.76462969 -125.28068018 244.29408568 C-128.76081976 247.75 -128.76081976 247.75 -129.875 247.75 C-130.55546435 219.43780118 -131.06527714 191.12684422 -131.37755299 162.80808735 C-131.52647366 149.6556385 -131.72907822 136.50829763 -132.06274414 123.35913086 C-132.35378087 111.88433314 -132.53933604 100.41323562 -132.60356635 88.93484944 C-132.64106798 82.8667222 -132.72768904 76.80916883 -132.94117165 70.7444706 C-134.3352424 29.55060951 -134.3352424 29.55060951 -121.75666708 15.27278847 C-89.08244095 -19.08825995 -39.01982874 -32.19150168 0 0 Z " fill="#FEBB00" transform="translate(780.875,249.25)"/>
<path d="M0 0 C0.33 0 0.66 0 1 0 C1 128.04 1 256.08 1 388 C0.67 388 0.34 388 0 388 C-0.00173625 387.21014623 -0.0034725 386.42029246 -0.00526136 385.60650373 C-0.10821703 338.82701929 -0.21631383 292.04754917 -0.33111694 245.26809223 C-0.34488705 239.65529075 -0.35861407 234.04248916 -0.37231445 228.4296875 C-0.37504276 227.31224682 -0.37777106 226.19480613 -0.38058204 225.04350361 C-0.42469602 206.933471 -0.46531623 188.82343214 -0.50465261 170.71338859 C-0.54507188 152.14047588 -0.58922864 133.56757479 -0.63687855 114.99467921 C-0.66617907 103.52778121 -0.69253994 92.0608841 -0.71517897 80.59397098 C-0.73096752 72.73813852 -0.75037577 64.88232028 -0.77266841 57.02650359 C-0.78543535 52.48941178 -0.79657 47.95233092 -0.80341911 43.41522598 C-0.80971913 39.26511541 -0.82054329 35.11504263 -0.8350333 30.9649528 C-0.83947648 29.46018507 -0.84223006 27.95541125 -0.84316199 26.45063725 C-0.84466706 24.4114457 -0.85281807 22.37226224 -0.8613348 20.33308792 C-0.86399284 19.19848357 -0.86665089 18.06387923 -0.86938947 16.89489293 C-0.98189717 14.4012369 -1.36350132 12.3902081 -2 10 C-1.66015625 7.421875 -1.66015625 7.421875 -1.0625 4.75 C-0.86785156 3.85796875 -0.67320312 2.9659375 -0.47265625 2.046875 C-0.31667969 1.37140625 -0.16070313 0.6959375 0 0 Z " fill="#19B656" transform="translate(806,320)"/>
<path d="M0 0 C0.33 0 0.66 0 1 0 C1 7.26 1 14.52 1 22 C0.67 22 0.34 22 0 22 C-0.22786458 20.046875 -0.45572917 18.09375 -0.68359375 16.140625 C-0.94371445 14.0107096 -0.94371445 14.0107096 -1.59375 12.0625 C-2.12006756 9.39042621 -1.65470096 7.39748662 -1.0625 4.75 C-0.86785156 3.85796875 -0.67320312 2.9659375 -0.47265625 2.046875 C-0.31667969 1.37140625 -0.16070313 0.6959375 0 0 Z " fill="#29B244" transform="translate(806,320)"/>
</svg>
