<svg version="1.1" id="Layer_1" xmlns="http://www.w3.org/2000/svg" xmlns:xlink="http://www.w3.org/1999/xlink" x="0px" y="0px"
	 width="100%" viewBox="0 0 1056 1056" enable-background="new 0 0 1056 1056" xml:space="preserve">
<path fill="#FFFFFF" opacity="1.000000" stroke="none" 
	d="
M574.000000,1057.000000 
	C543.979126,1057.000000 513.958191,1057.000000 483.771362,1056.624268 
	C482.428436,1055.832397 481.277649,1055.166504 480.070343,1055.039795 
	C469.830811,1053.965576 459.471191,1053.615234 449.359558,1051.840210 
	C433.493713,1049.055054 417.740723,1045.556763 402.033295,1041.953613 
	C367.980316,1034.142090 335.357635,1022.127380 303.797699,1007.275635 
	C274.006836,993.256470 245.361511,977.143250 219.287247,956.931519 
	C201.265060,942.961365 183.517639,928.581787 166.364059,913.566528 
	C156.041489,904.530762 146.949432,894.058655 137.574829,883.980408 
	C130.318558,876.179504 122.927963,868.401123 116.579422,859.880737 
	C105.103867,844.479431 94.194664,828.645752 83.352219,812.785400 
	C66.406815,787.997620 52.948093,761.254089 41.445747,733.635742 
	C29.723391,705.489014 20.202406,676.560242 13.738486,646.632568 
	C8.796835,623.752930 4.647058,600.820435 2.921952,577.465942 
	C2.858091,576.601379 1.666208,575.820068 1.000004,575.000000 
	C1.000000,544.645752 1.000000,514.291565 1.377990,483.771545 
	C2.164608,482.927551 2.853926,482.283020 2.939965,481.566040 
	C4.338181,469.914215 5.292027,458.195923 7.095998,446.609375 
	C9.157663,433.367706 11.470643,420.125824 14.546732,407.089874 
	C20.259981,382.878113 27.891901,359.249908 36.873875,336.012085 
	C46.747635,310.467072 58.408909,285.771301 72.501724,262.391968 
	C83.642395,243.910126 96.028244,226.096146 108.936752,208.787781 
	C120.047470,193.889999 131.971191,179.448059 144.825165,166.041107 
	C159.090576,151.161987 174.393967,137.190781 190.042145,123.751961 
	C202.809158,112.787506 216.440506,102.745728 230.262497,93.118805 
	C242.253235,84.767319 254.674347,76.865135 267.573792,70.025169 
	C288.702454,58.821659 309.882568,47.452591 331.944061,38.339668 
	C357.559723,27.758615 384.103516,19.525478 411.371368,13.720614 
	C434.260132,8.847976 457.157990,4.494641 480.534607,2.921198 
	C481.395630,2.863245 482.179932,1.666194 483.000000,0.999997 
	C513.020874,1.000000 543.041809,1.000000 573.228394,1.379428 
	C574.573364,2.172371 575.727112,2.837279 576.935913,2.960010 
	C587.507935,4.033432 598.252869,4.171820 608.634399,6.191819 
	C629.487915,10.249405 650.238464,14.940329 670.860046,20.060293 
	C699.889038,27.267651 727.638123,38.124344 754.638184,50.951077 
	C784.101318,64.947853 811.970032,81.505363 838.463562,100.611031 
	C857.443848,114.298523 875.362244,129.153076 892.397461,145.080688 
	C902.318665,154.356857 911.527649,164.415131 920.784851,174.374634 
	C927.924744,182.056305 935.212952,189.709625 941.423340,198.122528 
	C953.499695,214.481857 965.078613,231.221527 976.474548,248.066803 
	C992.659058,271.990356 1005.510071,297.786743 1016.556946,324.366272 
	C1028.258545,352.521179 1037.799438,381.441071 1044.262085,411.368500 
	C1049.203003,434.247894 1053.353271,457.179962 1055.078003,480.534149 
	C1055.141846,481.398712 1056.333740,482.179962 1057.000000,483.000000 
	C1057.000000,513.354248 1057.000000,543.708435 1056.622070,574.228455 
	C1055.835327,575.072571 1055.145996,575.717224 1055.060059,576.434387 
	C1053.661743,588.086426 1052.708008,599.805054 1050.903809,611.391785 
	C1048.841919,624.633789 1046.536011,637.877869 1043.450684,650.911499 
	C1037.720581,675.117310 1030.069214,698.741394 1021.118652,721.985718 
	C1011.276978,747.544434 999.588806,772.229919 985.496582,795.610168 
	C974.356506,814.092590 961.929993,831.874146 949.070312,849.222412 
	C938.397400,863.620605 926.852783,877.488342 914.603943,890.570129 
	C902.524353,903.471191 889.168579,915.190247 876.203247,927.245667 
	C860.463989,941.880249 843.400391,954.843628 825.216187,966.285278 
	C809.702026,976.046814 794.493530,986.443909 778.296753,994.932190 
	C758.848389,1005.124390 738.869324,1014.541321 718.442261,1022.569275 
	C692.145142,1032.904175 664.985718,1040.706055 637.141479,1046.192139 
	C616.862732,1050.187744 596.619324,1053.879761 575.965088,1055.082153 
	C575.275146,1055.122314 574.653442,1056.334229 574.000000,1057.000000 
M138.559982,279.474640 
	C138.622925,280.371185 138.685867,281.267761 138.516342,283.045135 
	C138.672836,306.032471 138.829315,329.019806 138.817688,352.931671 
	C138.806137,480.878143 138.887115,608.824707 138.715881,736.770996 
	C138.674774,767.491760 164.647949,790.657349 192.350784,790.316223 
	C231.328598,789.836182 270.316742,790.196350 309.300476,790.196289 
	C316.159607,790.196289 316.162628,790.194153 316.162659,783.081177 
	C316.163208,687.121216 316.157196,591.161316 316.194489,495.201355 
	C316.195435,492.736267 316.668518,490.271393 317.603882,488.006683 
	C319.421021,489.422516 321.226959,490.853058 323.056885,492.252136 
	C390.428711,543.760010 457.820557,595.241760 525.121826,646.841675 
	C528.336792,649.306641 530.400391,649.550110 533.737732,646.977478 
	C569.025330,619.774963 604.461182,592.764954 639.830139,565.667786 
	C669.009521,543.312500 698.125305,520.874146 727.341675,498.567413 
	C732.197998,494.859619 737.424805,491.637085 742.444946,489.258209 
	C742.444092,587.193909 742.442261,685.129578 742.444336,783.065247 
	C742.444458,790.277100 742.457031,790.280579 749.832947,790.280823 
	C788.640808,790.282166 827.450867,790.496948 866.254456,790.090576 
	C873.558716,790.014099 881.286743,788.562683 888.033020,785.815125 
	C901.802917,780.207031 911.902527,770.369629 917.012878,755.227478 
	C917.703064,752.490356 918.393250,749.753235 919.355225,746.329773 
	C919.552979,744.880920 919.750732,743.432007 920.458008,741.345825 
	C920.539246,740.019104 920.691833,738.692383 920.691711,737.365662 
	C920.678406,588.242065 920.675781,439.118439 920.601562,289.994812 
	C920.592346,271.454010 915.869995,254.207626 906.102295,238.270859 
	C883.644348,201.628891 841.087524,191.120758 804.830811,213.772949 
	C797.514160,218.344177 790.811707,223.914093 783.921875,229.149628 
	C770.548218,239.312073 757.242432,249.563965 743.227356,259.927185 
	C736.064941,265.347321 728.898499,270.762115 721.740784,276.188538 
	C696.684875,295.184021 671.617065,314.163818 646.581482,333.186005 
	C608.682434,361.981842 570.794128,390.791870 532.948120,419.657318 
	C530.348389,421.640167 528.378235,421.477478 525.866638,419.509796 
	C518.137146,413.454041 510.247711,407.602509 502.428223,401.661285 
	C458.969879,368.642059 415.529266,335.599426 372.049744,302.608063 
	C353.382233,288.443481 334.635590,274.383179 315.474182,259.750549 
	C295.540955,244.759293 275.847046,229.435669 255.612015,214.863480 
	C231.940125,197.816238 200.488007,196.996719 176.882523,213.326584 
	C154.142319,229.057816 141.975983,251.530518 138.559982,279.474640 
z"/>
<path fill="#000000" opacity="1.000000" stroke="none" 
	d="
M574.468628,1057.000000 
	C574.653442,1056.334229 575.275146,1055.122314 575.965088,1055.082153 
	C596.619324,1053.879761 616.862732,1050.187744 637.141479,1046.192139 
	C664.985718,1040.706055 692.145142,1032.904175 718.442261,1022.569275 
	C738.869324,1014.541321 758.848389,1005.124390 778.296753,994.932190 
	C794.493530,986.443909 809.702026,976.046814 825.216187,966.285278 
	C843.400391,954.843628 860.463989,941.880249 876.203247,927.245667 
	C889.168579,915.190247 902.524353,903.471191 914.603943,890.570129 
	C926.852783,877.488342 938.397400,863.620605 949.070312,849.222412 
	C961.929993,831.874146 974.356506,814.092590 985.496582,795.610168 
	C999.588806,772.229919 1011.276978,747.544434 1021.118652,721.985718 
	C1030.069214,698.741394 1037.720581,675.117310 1043.450684,650.911499 
	C1046.536011,637.877869 1048.841919,624.633789 1050.903809,611.391785 
	C1052.708008,599.805054 1053.661743,588.086426 1055.060059,576.434387 
	C1055.145996,575.717224 1055.835327,575.072571 1056.622070,574.697144 
	C1057.000000,735.593811 1057.000000,896.187683 1057.000000,1057.000000 
	C896.312500,1057.000000 735.624939,1057.000000 574.468628,1057.000000 
z"/>
<path fill="#000000" opacity="1.000000" stroke="none" 
	d="
M1.000004,575.468628 
	C1.666208,575.820068 2.858091,576.601379 2.921952,577.465942 
	C4.647058,600.820435 8.796835,623.752930 13.738486,646.632568 
	C20.202406,676.560242 29.723391,705.489014 41.445747,733.635742 
	C52.948093,761.254089 66.406815,787.997620 83.352219,812.785400 
	C94.194664,828.645752 105.103867,844.479431 116.579422,859.880737 
	C122.927963,868.401123 130.318558,876.179504 137.574829,883.980408 
	C146.949432,894.058655 156.041489,904.530762 166.364059,913.566528 
	C183.517639,928.581787 201.265060,942.961365 219.287247,956.931519 
	C245.361511,977.143250 274.006836,993.256470 303.797699,1007.275635 
	C335.357635,1022.127380 367.980316,1034.142090 402.033295,1041.953613 
	C417.740723,1045.556763 433.493713,1049.055054 449.359558,1051.840210 
	C459.471191,1053.615234 469.830811,1053.965576 480.070343,1055.039795 
	C481.277649,1055.166504 482.428436,1055.832397 483.302704,1056.624268 
	C322.406250,1057.000000 161.812500,1057.000000 1.000000,1057.000000 
	C1.000000,896.645813 1.000000,736.291565 1.000004,575.468628 
z"/>
<path fill="#000000" opacity="1.000000" stroke="none" 
	d="
M1057.000000,482.531342 
	C1056.333740,482.179962 1055.141846,481.398712 1055.078003,480.534149 
	C1053.353271,457.179962 1049.203003,434.247894 1044.262085,411.368500 
	C1037.799438,381.441071 1028.258545,352.521179 1016.556946,324.366272 
	C1005.510071,297.786743 992.659058,271.990356 976.474548,248.066803 
	C965.078613,231.221527 953.499695,214.481857 941.423340,198.122528 
	C935.212952,189.709625 927.924744,182.056305 920.784851,174.374634 
	C911.527649,164.415131 902.318665,154.356857 892.397461,145.080688 
	C875.362244,129.153076 857.443848,114.298523 838.463562,100.611031 
	C811.970032,81.505363 784.101318,64.947853 754.638184,50.951077 
	C727.638123,38.124344 699.889038,27.267651 670.860046,20.060293 
	C650.238464,14.940329 629.487915,10.249405 608.634399,6.191819 
	C598.252869,4.171820 587.507935,4.033432 576.935913,2.960010 
	C575.727112,2.837279 574.573364,2.172371 573.697021,1.379428 
	C734.927002,1.000000 895.854004,1.000000 1057.000000,1.000000 
	C1057.000000,161.354156 1057.000000,321.708435 1057.000000,482.531342 
z"/>
<path fill="#000000" opacity="1.000000" stroke="none" 
	d="
M482.531342,0.999997 
	C482.179932,1.666194 481.395630,2.863245 480.534607,2.921198 
	C457.157990,4.494641 434.260132,8.847976 411.371368,13.720614 
	C384.103516,19.525478 357.559723,27.758615 331.944061,38.339668 
	C309.882568,47.452591 288.702454,58.821659 267.573792,70.025169 
	C254.674347,76.865135 242.253235,84.767319 230.262497,93.118805 
	C216.440506,102.745728 202.809158,112.787506 190.042145,123.751961 
	C174.393967,137.190781 159.090576,151.161987 144.825165,166.041107 
	C131.971191,179.448059 120.047470,193.889999 108.936752,208.787781 
	C96.028244,226.096146 83.642395,243.910126 72.501724,262.391968 
	C58.408909,285.771301 46.747635,310.467072 36.873875,336.012085 
	C27.891901,359.249908 20.259981,382.878113 14.546732,407.089874 
	C11.470643,420.125824 9.157663,433.367706 7.095998,446.609375 
	C5.292027,458.195923 4.338181,469.914215 2.939965,481.566040 
	C2.853926,482.283020 2.164608,482.927551 1.377990,483.302917 
	C1.000000,322.406250 1.000000,161.812500 1.000000,1.000000 
	C161.354156,1.000000 321.708435,1.000000 482.531342,0.999997 
z"/>
<path fill="#929292" opacity="1.000000" stroke="none" 
	d="
M315.924866,260.275482 
	C334.635590,274.383179 353.382233,288.443481 372.049744,302.608063 
	C415.529266,335.599426 458.969879,368.642059 502.428223,401.661285 
	C510.247711,407.602509 518.137146,413.454041 525.866638,419.509796 
	C528.378235,421.477478 530.348389,421.640167 532.948120,419.657318 
	C570.794128,390.791870 608.682434,361.981842 646.581482,333.186005 
	C671.617065,314.163818 696.684875,295.184021 721.740784,276.188538 
	C728.898499,270.762115 736.064941,265.347321 743.559387,260.289337 
	C743.593994,262.437958 743.036926,264.224335 743.036499,266.010864 
	C743.019592,339.363403 743.052734,412.715973 743.075073,486.300110 
	C742.873840,487.084595 742.677124,487.637451 742.480347,488.190308 
	C737.424805,491.637085 732.197998,494.859619 727.341675,498.567413 
	C698.125305,520.874146 669.009521,543.312500 639.830139,565.667786 
	C604.461182,592.764954 569.025330,619.774963 533.737732,646.977478 
	C530.400391,649.550110 528.336792,649.306641 525.121826,646.841675 
	C457.820557,595.241760 390.428711,543.760010 323.056885,492.252136 
	C321.226959,490.853058 319.421021,489.422516 317.092773,487.674896 
	C316.045532,486.599976 315.509369,485.856873 315.272278,484.804504 
	C315.719360,483.521332 315.996918,482.547363 315.996796,481.573425 
	C315.986847,407.807434 315.955017,334.041473 315.924866,260.275482 
z"/>
<path fill="#9D9D9D" opacity="1.000000" stroke="none" 
	d="
M314.973206,485.113739 
	C315.509369,485.856873 316.045532,486.599976 316.751526,487.574768 
	C316.668518,490.271393 316.195435,492.736267 316.194489,495.201355 
	C316.157196,591.161316 316.163208,687.121216 316.162659,783.081177 
	C316.162628,790.194153 316.159607,790.196289 309.300476,790.196289 
	C270.316742,790.196350 231.328598,789.836182 192.350784,790.316223 
	C164.647949,790.657349 138.674774,767.491760 138.715881,736.770996 
	C138.887115,608.824707 138.806137,480.878143 139.253815,352.485809 
	C164.482803,370.880951 189.312332,389.673920 214.054016,408.581879 
	C227.751221,419.049500 241.256912,429.767487 254.931183,440.265472 
	C267.149353,449.645630 279.444641,458.926544 291.774933,468.159119 
	C299.441223,473.899414 307.236053,479.468079 314.973206,485.113739 
z"/>
<path fill="#6F6F6F" opacity="1.000000" stroke="none" 
	d="
M742.462646,488.724243 
	C742.677124,487.637451 742.873840,487.084595 743.418091,486.244019 
	C747.607300,483.107666 751.472656,480.290192 755.286987,477.405273 
	C779.568420,459.039673 803.898254,440.737396 828.095825,422.261963 
	C852.974060,403.266785 877.715271,384.092133 902.526978,365.009613 
	C907.686340,361.041534 912.891174,357.132568 919.012207,352.484802 
	C919.012207,355.739502 919.012268,357.842621 919.012268,359.945740 
	C919.011841,485.391724 919.007141,610.837708 919.049805,736.283691 
	C919.050476,738.183655 919.635925,740.083313 919.948486,741.983154 
	C919.750732,743.432007 919.552979,744.880920 918.833435,746.736511 
	C917.672241,749.979614 917.032898,752.815979 916.393555,755.652344 
	C911.902527,770.369629 901.802917,780.207031 888.033020,785.815125 
	C881.286743,788.562683 873.558716,790.014099 866.254456,790.090576 
	C827.450867,790.496948 788.640808,790.282166 749.832947,790.280823 
	C742.457031,790.280579 742.444458,790.277100 742.444336,783.065247 
	C742.442261,685.129578 742.444092,587.193909 742.462646,488.724243 
z"/>
<path fill="#838383" opacity="1.000000" stroke="none" 
	d="
M920.203247,741.664490 
	C919.635925,740.083313 919.050476,738.183655 919.049805,736.283691 
	C919.007141,610.837708 919.011841,485.391724 919.012268,359.945740 
	C919.012268,357.842621 919.012207,355.739502 919.012207,352.484802 
	C912.891174,357.132568 907.686340,361.041534 902.526978,365.009613 
	C877.715271,384.092133 852.974060,403.266785 828.095825,422.261963 
	C803.898254,440.737396 779.568420,459.039673 755.286987,477.405273 
	C751.472656,480.290192 747.607300,483.107666 743.422607,486.012451 
	C743.052734,412.715973 743.019592,339.363403 743.036499,266.010864 
	C743.036926,264.224335 743.593994,262.437958 743.900024,260.215149 
	C757.242432,249.563965 770.548218,239.312073 783.921875,229.149628 
	C790.811707,223.914093 797.514160,218.344177 804.830811,213.772949 
	C841.087524,191.120758 883.644348,201.628891 906.102295,238.270859 
	C915.869995,254.207626 920.592346,271.454010 920.601562,289.994812 
	C920.675781,439.118439 920.678406,588.242065 920.691711,737.365662 
	C920.691833,738.692383 920.539246,740.019104 920.203247,741.664490 
z"/>
<path fill="#757575" opacity="1.000000" stroke="none" 
	d="
M315.272278,484.804504 
	C307.236053,479.468079 299.441223,473.899414 291.774933,468.159119 
	C279.444641,458.926544 267.149353,449.645630 254.931183,440.265472 
	C241.256912,429.767487 227.751221,419.049500 214.054016,408.581879 
	C189.312332,389.673920 164.482803,370.880951 139.337891,352.023560 
	C138.829315,329.019806 138.672836,306.032471 138.873245,282.469116 
	C139.184235,280.934387 139.138321,279.975708 139.092407,279.017029 
	C141.975983,251.530518 154.142319,229.057816 176.882523,213.326584 
	C200.488007,196.996719 231.940125,197.816238 255.612015,214.863480 
	C275.847046,229.435669 295.540955,244.759293 315.699524,260.013000 
	C315.955017,334.041473 315.986847,407.807434 315.996796,481.573425 
	C315.996918,482.547363 315.719360,483.521332 315.272278,484.804504 
z"/>
<path fill="#838383" opacity="1.000000" stroke="none" 
	d="
M916.703247,755.439941 
	C917.032898,752.815979 917.672241,749.979614 918.697510,747.079712 
	C918.393250,749.753235 917.703064,752.490356 916.703247,755.439941 
z"/>
<path fill="#9D9D9D" opacity="1.000000" stroke="none" 
	d="
M138.826202,279.245850 
	C139.138321,279.975708 139.184235,280.934387 138.989471,282.028687 
	C138.685867,281.267761 138.622925,280.371185 138.826202,279.245850 
z"/>
</svg>