<?xml version="1.0" encoding="UTF-8"?>
<svg version="1.1" xmlns="http://www.w3.org/2000/svg" width="512" height="512">
<path d="M0 0 C0.98484375 0.78117187 1.9696875 1.56234375 2.984375 2.3671875 C17.02873524 13.74567924 30.12033793 26.71494197 40.78076172 41.33203125 C42.01303898 43.01783787 43.27206555 44.68094705 44.53515625 46.34375 C51.30256288 55.38346259 56.73891717 65.02526837 62 75 C62.36367676 75.67820801 62.72735352 76.35641602 63.10205078 77.05517578 C90.24927799 127.85444036 95.02556212 190.92899321 78.6171875 245.87890625 C59.640288 306.78124777 19.17173841 355.4142241 -37 385.5 C-89.95042969 413.22166701 -153.21624639 417.97830549 -210.25341797 400.86816406 C-224.08341316 396.49665625 -237.24045788 390.87251104 -250 384 C-250.66338379 383.64824707 -251.32676758 383.29649414 -252.01025391 382.93408203 C-270.53990707 373.06844952 -286.80253206 360.46056588 -302 346 C-302.85198975 345.19103271 -302.85198975 345.19103271 -303.72119141 344.36572266 C-312.30810916 336.15369659 -319.96293669 327.57291508 -327 318 C-327.96679688 316.69095703 -327.96679688 316.69095703 -328.953125 315.35546875 C-365.06549055 265.00962579 -378.75385696 202.99729083 -369 142 C-358.60495542 81.30855661 -324.01519231 27.64985764 -274 -8 C-192.10782073 -64.86160321 -78.19488675 -62.68696229 0 0 Z M-250 68 C-254.41764791 75.11957323 -255.80440977 81.65424863 -255 90 C-253.10527035 96.62125632 -249.61529261 102.83082443 -243.59765625 106.44140625 C-235.18406387 110.77792743 -227.51123956 112.52539079 -218.08203125 110.31640625 C-209.87625215 107.58869209 -204.40559201 103.92399559 -200.0625 96.375 C-196.90537371 89.45641302 -196.80396283 81.99436452 -199.0625 74.75 C-202.14259724 67.84137067 -207.19180918 62.84486837 -214.0078125 59.69140625 C-226.31311091 55.42074386 -241.37598111 57.68407549 -250 68 Z M-113.5703125 146.29296875 C-115.61216443 148.73091764 -117.2814837 151.32675242 -119 154 C-119.99 154.495 -119.99 154.495 -121 155 C-121 147.74 -121 140.48 -121 133 C-137.5 133 -154 133 -171 133 C-171 184.15 -171 235.3 -171 288 C-154.5 288 -138 288 -121 288 C-120.95101562 281.70292969 -120.90203125 275.40585937 -120.8515625 268.91796875 C-120.81614808 264.91209398 -120.78017202 260.90623984 -120.7421875 256.90039062 C-120.6820422 250.55187032 -120.62389845 244.20337864 -120.578125 237.85473633 C-120.54106205 232.73234101 -120.49464689 227.61010564 -120.44193649 222.48784828 C-120.42350359 220.54041685 -120.40835536 218.59295128 -120.39665604 216.64546776 C-120.21800443 187.91708552 -120.21800443 187.91708552 -112 178 C-103.1364551 170.5582524 -94.14859779 170.06175167 -83 171 C-77.6808028 172.14424591 -74.88243496 174.75628331 -71.6875 179.0625 C-64.90065683 190.81866346 -65.52880391 203.25416595 -65.48828125 216.41796875 C-65.47141295 218.48734081 -65.45325986 220.55670276 -65.43388367 222.62605286 C-65.3866111 228.0395288 -65.35665505 233.45296373 -65.33044434 238.86657715 C-65.29525123 245.37969547 -65.23830381 251.89265639 -65.18505096 258.40564728 C-65.10680411 268.27041084 -65.05599644 278.13497212 -65 288 C-48.17 288 -31.34 288 -14 288 C-13.91256863 270.8193505 -13.91256863 270.8193505 -13.85351562 253.63867188 C-13.83566577 246.61898899 -13.81467788 239.59942484 -13.77368164 232.57983398 C-13.74079667 226.91285346 -13.72308626 221.24600048 -13.71536827 215.57893181 C-13.70987658 213.42986993 -13.69915474 211.28081407 -13.68280983 209.13180733 C-13.50723587 185.06395254 -15.79233688 162.44845572 -32.8671875 143.98046875 C-38.15044552 138.9493164 -44.32737454 135.83393359 -51 133 C-51.80566406 132.65710938 -52.61132812 132.31421875 -53.44140625 131.9609375 C-74.1795144 124.83741399 -98.61239161 130.44043537 -113.5703125 146.29296875 Z M-252 133 C-252 184.15 -252 235.3 -252 288 C-235.17 288 -218.34 288 -201 288 C-201 236.85 -201 185.7 -201 133 C-217.83 133 -234.66 133 -252 133 Z " fill="#FEFEFE" transform="translate(402,79)"/>
</svg>
