<?xml version="1.0" encoding="UTF-8"?>
<svg version="1.1" xmlns="http://www.w3.org/2000/svg" width="583" height="583">
<path d="M0 0 C2.79676735 0.00536433 5.59337417 0.00001641 8.39013672 -0.00634766 C22.50920862 -0.01304418 36.63866706 0.06964864 50.55029297 2.75537109 C51.46029053 2.92866943 52.37028809 3.10196777 53.30786133 3.28051758 C100.38954609 12.54203513 143.19644203 30.74783754 181.30029297 60.13037109 C182.14333984 60.77748047 182.98638672 61.42458984 183.85498047 62.09130859 C189.6838245 66.65382229 195.12641237 71.55915997 200.54248047 76.59521484 C202.69150393 78.57073358 204.86036371 80.46441473 207.11279297 82.31787109 C210.14411295 84.88506553 212.6734582 87.73130169 215.23779297 90.75927734 C217.25103542 93.07374357 219.34505661 95.29529371 221.46020508 97.51635742 C228.76302219 105.23234335 235.1532028 113.47361069 241.30029297 122.13037109 C241.73051758 122.73574707 242.16074219 123.34112305 242.60400391 123.96484375 C277.10688204 173.02572784 294.83682135 231.38508042 294.61279297 291.19287109 C294.61063782 292.22973053 294.60848267 293.26658997 294.60626221 294.33486938 C294.55469308 309.80605382 294.11102516 324.87839612 291.30029297 340.13037109 C291.11756836 341.18434082 290.93484375 342.23831055 290.74658203 343.32421875 C280.5163427 401.06879625 252.62909269 456.26398671 210.30029297 497.13037109 C207.87693425 499.53461815 205.47298018 501.949343 203.11669922 504.41943359 C196.88111534 510.88196247 190.1868592 516.3620744 183.04980469 521.78662109 C181.3967416 523.05629165 179.76931708 524.35183828 178.14794922 525.66162109 C169.35494683 532.66941114 160.01947207 538.49401251 150.30029297 544.13037109 C149.46884766 544.61795898 148.63740234 545.10554687 147.78076172 545.60791016 C132.87037576 554.29055145 117.42765896 561.03238052 101.30029297 567.13037109 C100.55199219 567.41493164 99.80369141 567.69949219 99.03271484 567.99267578 C94.84057489 569.55996928 90.60635326 570.91756891 86.30029297 572.13037109 C85.46594727 572.365625 84.63160156 572.60087891 83.77197266 572.84326172 C57.37755257 580.13657822 31.05852353 583.36294509 3.73779297 583.38037109 C2.30891251 583.38138321 2.30891251 583.38138321 0.85116577 583.38241577 C-72.34318813 583.30032406 -145.93272117 555.82673271 -198.26220703 503.69287109 C-199.41035084 502.50760485 -200.55610707 501.32002206 -201.69970703 500.13037109 C-204.20655253 497.60711417 -206.72822128 495.1026345 -209.27783203 492.62255859 C-215.56236839 486.46665309 -221.33463001 480.11730931 -226.69970703 473.13037109 C-227.21404297 472.46537598 -227.72837891 471.80038086 -228.25830078 471.11523438 C-237.34189128 459.30184661 -245.37324282 447.10313157 -252.69970703 434.13037109 C-253.13766602 433.36289551 -253.575625 432.59541992 -254.02685547 431.8046875 C-270.01258856 403.55435146 -280.18201937 372.03885944 -285.69970703 340.13037109 C-285.86341797 339.23318359 -286.02712891 338.33599609 -286.19580078 337.41162109 C-291.48855597 307.31727756 -291.23412135 273.1619582 -285.69970703 243.13037109 C-285.51698242 242.07640137 -285.33425781 241.02243164 -285.14599609 239.93652344 C-275.03945021 182.89013348 -247.68505348 127.49047832 -205.69970703 87.13037109 C-203.20299207 84.65385609 -200.73007193 82.16206908 -198.29736328 79.62255859 C-191.7901735 72.90481259 -184.88277143 67.10113994 -177.43310547 61.45800781 C-175.78563841 60.19618727 -174.16541621 58.90707455 -172.55126953 57.60302734 C-163.75788446 50.59268383 -154.42045955 44.76764214 -144.69970703 39.13037109 C-143.86826172 38.6427832 -143.03681641 38.15519531 -142.18017578 37.65283203 C-127.26978983 28.97019074 -111.82707302 22.22836167 -95.69970703 16.13037109 C-94.95140625 15.84581055 -94.20310547 15.56125 -93.43212891 15.26806641 C-77.92995081 9.47234795 -61.43265905 5.87708636 -45.19970703 2.81787109 C-44.37784912 2.65859131 -43.55599121 2.49931152 -42.70922852 2.33520508 C-28.63069013 -0.18203925 -14.25228608 -0.03243125 0 0 Z " fill="#FDFDFD" transform="translate(288.69970703125,-0.13037109375)"/>
<path d="M0 0 C2.79676735 0.00536433 5.59337417 0.00001641 8.39013672 -0.00634766 C22.50920862 -0.01304418 36.63866706 0.06964864 50.55029297 2.75537109 C51.46029053 2.92866943 52.37028809 3.10196777 53.30786133 3.28051758 C100.38954609 12.54203513 143.19644203 30.74783754 181.30029297 60.13037109 C182.14333984 60.77748047 182.98638672 61.42458984 183.85498047 62.09130859 C189.6838245 66.65382229 195.12641237 71.55915997 200.54248047 76.59521484 C202.69150393 78.57073358 204.86036371 80.46441473 207.11279297 82.31787109 C210.14411295 84.88506553 212.6734582 87.73130169 215.23779297 90.75927734 C217.25103542 93.07374357 219.34505661 95.29529371 221.46020508 97.51635742 C228.76302219 105.23234335 235.1532028 113.47361069 241.30029297 122.13037109 C241.73051758 122.73574707 242.16074219 123.34112305 242.60400391 123.96484375 C277.10688204 173.02572784 294.83682135 231.38508042 294.61279297 291.19287109 C294.61063782 292.22973053 294.60848267 293.26658997 294.60626221 294.33486938 C294.55469308 309.80605382 294.11102516 324.87839612 291.30029297 340.13037109 C291.11756836 341.18434082 290.93484375 342.23831055 290.74658203 343.32421875 C280.5163427 401.06879625 252.62909269 456.26398671 210.30029297 497.13037109 C207.87693425 499.53461815 205.47298018 501.949343 203.11669922 504.41943359 C196.88111534 510.88196247 190.1868592 516.3620744 183.04980469 521.78662109 C181.3967416 523.05629165 179.76931708 524.35183828 178.14794922 525.66162109 C169.35494683 532.66941114 160.01947207 538.49401251 150.30029297 544.13037109 C149.46884766 544.61795898 148.63740234 545.10554687 147.78076172 545.60791016 C132.87037576 554.29055145 117.42765896 561.03238052 101.30029297 567.13037109 C100.55199219 567.41493164 99.80369141 567.69949219 99.03271484 567.99267578 C94.84057489 569.55996928 90.60635326 570.91756891 86.30029297 572.13037109 C85.46594727 572.365625 84.63160156 572.60087891 83.77197266 572.84326172 C57.37755257 580.13657822 31.05852353 583.36294509 3.73779297 583.38037109 C2.30891251 583.38138321 2.30891251 583.38138321 0.85116577 583.38241577 C-72.34318813 583.30032406 -145.93272117 555.82673271 -198.26220703 503.69287109 C-199.41035084 502.50760485 -200.55610707 501.32002206 -201.69970703 500.13037109 C-204.20655253 497.60711417 -206.72822128 495.1026345 -209.27783203 492.62255859 C-215.56236839 486.46665309 -221.33463001 480.11730931 -226.69970703 473.13037109 C-227.21404297 472.46537598 -227.72837891 471.80038086 -228.25830078 471.11523438 C-237.34189128 459.30184661 -245.37324282 447.10313157 -252.69970703 434.13037109 C-253.13766602 433.36289551 -253.575625 432.59541992 -254.02685547 431.8046875 C-270.01258856 403.55435146 -280.18201937 372.03885944 -285.69970703 340.13037109 C-285.86341797 339.23318359 -286.02712891 338.33599609 -286.19580078 337.41162109 C-291.48855597 307.31727756 -291.23412135 273.1619582 -285.69970703 243.13037109 C-285.51698242 242.07640137 -285.33425781 241.02243164 -285.14599609 239.93652344 C-275.03945021 182.89013348 -247.68505348 127.49047832 -205.69970703 87.13037109 C-203.20299207 84.65385609 -200.73007193 82.16206908 -198.29736328 79.62255859 C-191.7901735 72.90481259 -184.88277143 67.10113994 -177.43310547 61.45800781 C-175.78563841 60.19618727 -174.16541621 58.90707455 -172.55126953 57.60302734 C-163.75788446 50.59268383 -154.42045955 44.76764214 -144.69970703 39.13037109 C-143.86826172 38.6427832 -143.03681641 38.15519531 -142.18017578 37.65283203 C-127.26978983 28.97019074 -111.82707302 22.22836167 -95.69970703 16.13037109 C-94.95140625 15.84581055 -94.20310547 15.56125 -93.43212891 15.26806641 C-77.92995081 9.47234795 -61.43265905 5.87708636 -45.19970703 2.81787109 C-44.37784912 2.65859131 -43.55599121 2.49931152 -42.70922852 2.33520508 C-28.63069013 -0.18203925 -14.25228608 -0.03243125 0 0 Z M-167.07885742 88.71411133 C-168.23761129 89.72660285 -169.40144715 90.73329007 -170.56860352 91.73608398 C-183.28551021 102.71879628 -194.67117743 114.66152259 -204.69970703 128.13037109 C-205.88436649 129.61181372 -207.07155396 131.0912413 -208.26220703 132.56787109 C-213.11694994 138.82302061 -217.40032388 145.48753165 -221.69970703 152.13037109 C-222.65876953 153.60376953 -222.65876953 153.60376953 -223.63720703 155.10693359 C-226.34923252 159.42270493 -228.42449368 162.90131738 -228.69970703 168.13037109 C-229.35970703 168.13037109 -230.01970703 168.13037109 -230.69970703 168.13037109 C-231.68497404 170.35701426 -232.66302147 172.58638426 -233.63720703 174.81787109 C-233.915 175.44371094 -234.19279297 176.06955078 -234.47900391 176.71435547 C-235.97859353 180.16521833 -237.1370056 183.40514515 -237.69970703 187.13037109 C-238.35970703 187.13037109 -239.01970703 187.13037109 -239.69970703 187.13037109 C-244.52907061 199.97045942 -249.20108125 212.6575203 -252.22314453 226.06152344 C-252.70692253 228.16169492 -253.23263034 230.24835662 -253.76220703 232.33740234 C-258.90527694 253.44649281 -258.8723697 275.33386749 -258.94970703 296.94287109 C-258.9550647 297.7815976 -258.96042236 298.6203241 -258.96594238 299.48446655 C-259.01956472 310.52592811 -258.35655065 321.21086587 -256.69970703 332.13037109 C-256.03970703 332.13037109 -255.37970703 332.13037109 -254.69970703 332.13037109 C-254.73225911 334.14860026 -254.7648112 336.16682943 -254.79736328 338.18505859 C-254.82619945 340.21222514 -254.82619945 340.21222514 -253.69970703 342.13037109 C-253.38296875 344.18916991 -253.09564724 346.25254616 -252.82470703 348.31787109 C-252.0771563 353.41125782 -250.79281022 357.42088891 -248.69970703 362.13037109 C-248.35127377 363.89448594 -248.04214935 365.66659993 -247.76220703 367.44287109 C-246.82440701 373.08504496 -244.97421141 377.90772864 -242.69970703 383.13037109 C-242.16023438 384.48195313 -242.16023438 384.48195313 -241.60986328 385.86083984 C-230.81675976 412.78908803 -215.52162801 438.08272988 -196.69970703 460.13037109 C-195.71887361 461.29673119 -194.73842823 462.46341768 -193.75830078 463.63037109 C-185.97804422 472.8501465 -177.8768711 481.28436564 -168.69970703 489.13037109 C-167.79994141 489.93087891 -166.90017578 490.73138672 -165.97314453 491.55615234 C-134.27951252 519.48200992 -94.04286885 538.90437406 -52.859375 547.65576172 C-50.05446725 548.27216921 -47.28926045 549.02476375 -44.51220703 549.75537109 C-10.04070545 557.46958181 27.03341264 555.85446297 61.30029297 548.13037109 C62.57388672 547.85580078 63.84748047 547.58123047 65.15966797 547.29833984 C109.48200401 537.05931918 149.50071366 515.79461966 183.02294922 485.18505859 C184.97405457 483.42471311 186.96042841 481.73852786 188.98779297 480.06787109 C192.08431114 477.43116072 194.68780249 474.52467802 197.31201172 471.42333984 C198.73219257 469.78552814 200.19900036 468.18768128 201.69482422 466.61865234 C214.16043166 453.53250222 224.36053702 438.79961221 233.30029297 423.13037109 C233.87392578 422.20998047 234.44755859 421.28958984 235.03857422 420.34130859 C236.46550733 418.26513225 236.46550733 418.26513225 236.30029297 416.13037109 C236.96029297 416.13037109 237.62029297 416.13037109 238.30029297 416.13037109 C238.54263672 415.56189453 238.78498047 414.99341797 239.03466797 414.40771484 C240.61123162 410.77555475 242.17724597 407.33280325 244.23779297 403.94287109 C246.87691983 399.49583843 248.37949327 394.59840168 250.05419922 389.72802734 C250.89109312 387.31179135 251.7642007 384.90782222 252.67138672 382.51708984 C254.87018898 376.69219262 256.82387066 370.78354664 258.80029297 364.88037109 C259.19087891 363.72923828 259.58146484 362.57810547 259.98388672 361.39208984 C261.12573934 357.98191047 262.22704893 354.56272942 263.30029297 351.13037109 C263.74078979 349.72948242 263.74078979 349.72948242 264.19018555 348.30029297 C266.64937432 339.60336691 267.21023289 330.7841347 267.80834961 321.80664062 C267.98566511 319.16210652 268.1816657 316.51946813 268.38037109 313.87646484 C269.24122645 301.94695375 269.48343767 290.08756426 269.30029297 278.13037109 C269.28361572 276.96070801 269.26693848 275.79104492 269.24975586 274.5859375 C268.91252644 258.1338659 267.20083888 242.88786414 262.30029297 227.13037109 C261.4150349 224.25877776 260.53038365 221.38699827 259.64599609 218.51513672 C259.03908878 216.5456246 258.42970116 214.57687514 257.81787109 212.60888672 C256.2375473 207.46164473 254.8698279 202.35146198 253.75854492 197.08422852 C253.14426841 194.46512626 252.22111301 192.04297853 251.17529297 189.56787109 C250.64548828 188.2975 250.64548828 188.2975 250.10498047 187.00146484 C249.83943359 186.38400391 249.57388672 185.76654297 249.30029297 185.13037109 C248.64029297 185.13037109 247.98029297 185.13037109 247.30029297 185.13037109 C247.21779297 184.47037109 247.13529297 183.81037109 247.05029297 183.13037109 C246.24680938 179.91643676 245.00235066 177.38338312 243.43310547 174.48583984 C242.30029297 172.13037109 242.30029297 172.13037109 241.07763672 168.56787109 C239.00891243 162.96139437 235.8638598 158.01234912 232.73779297 152.94287109 C232.11300049 151.92418945 231.48820801 150.90550781 230.84448242 149.85595703 C226.09005914 142.19960988 221.03999126 135.07481834 215.30029297 128.13037109 C214.56552734 127.20611328 213.83076172 126.28185547 213.07373047 125.32958984 C200.98809366 110.23322019 187.56980927 96.02390794 172.30029297 84.13037109 C171.05659637 83.13453583 169.81312113 82.13842407 168.56982422 81.14208984 C133.30255598 53.19388292 92.47441473 36.69391529 48.48779297 28.44287109 C47.35543213 28.22840332 46.22307129 28.01393555 45.05639648 27.79296875 C-29.71695014 14.08844109 -110.34747247 39.10964668 -167.07885742 88.71411133 Z " fill="#010101" transform="translate(288.69970703125,-0.13037109375)"/>
<path d="M0 0 C7.36923849 6.31331442 14.29465988 12.98607031 15.46484375 22.96875 C16.12484375 22.96875 16.78484375 22.96875 17.46484375 22.96875 C21.81830687 31.87356094 22.60153932 41.59652668 24 51.31640625 C24.32847072 53.93441874 24.32847072 53.93441874 25.46484375 55.96875 C25.55728392 57.51461332 25.58677065 59.06444379 25.58509827 60.61306763 C25.58716026 62.08125443 25.58716026 62.08125443 25.58926392 63.57910156 C25.58566864 64.65659668 25.58207336 65.7340918 25.57836914 66.84423828 C25.57851517 67.97594452 25.57866119 69.10765076 25.57881165 70.27365112 C25.57811282 74.02880749 25.57032182 77.78391476 25.5625 81.5390625 C25.56063571 84.13695244 25.55921186 86.73484274 25.55821228 89.33273315 C25.55477921 95.48088783 25.54689105 101.62902213 25.53686279 107.77716911 C25.52459932 115.46211975 25.51911733 123.14707327 25.51367188 130.83203125 C25.50392551 144.54428466 25.48389442 158.25649935 25.46484375 171.96875 C3.35484375 171.96875 -18.75515625 171.96875 -41.53515625 171.96875 C-41.58414063 164.55148437 -41.633125 157.13421875 -41.68359375 149.4921875 C-41.7190124 144.77082035 -41.7549909 140.04947057 -41.79296875 135.328125 C-41.85309023 127.84735709 -41.91122824 120.36661326 -41.95703125 112.88574219 C-41.9941219 106.84912496 -42.04054403 100.81264275 -42.09321976 94.77614212 C-42.11163813 92.48229993 -42.12679149 90.18842894 -42.13850021 87.89454269 C-40.9590927 67.34747879 -40.9590927 67.34747879 -47.53515625 48.96875 C-47.76203125 48.205625 -47.98890625 47.4425 -48.22265625 46.65625 C-51.42464889 40.09978889 -57.84422856 36.30813783 -64.53515625 33.96875 C-67.34208506 33.5738498 -70.07918557 33.53742969 -72.91015625 33.59375 C-74.03659546 33.61223999 -74.03659546 33.61223999 -75.18579102 33.63110352 C-85.54218516 33.94438921 -90.90344563 36.71716609 -98.56640625 43.8125 C-100.736639 45.89630082 -100.736639 45.89630082 -101.53515625 48.96875 C-102.19515625 48.96875 -102.85515625 48.96875 -103.53515625 48.96875 C-106.36756133 55.88319711 -106.97783854 62.03006385 -106.9675293 69.45532227 C-106.97772095 70.56854355 -106.9879126 71.68176483 -106.99841309 72.82872009 C-107.02842705 76.48091745 -107.03779154 80.13285201 -107.046875 83.78515625 C-107.06373023 86.32821008 -107.0818816 88.87125562 -107.10127258 91.41429138 C-107.14384967 97.40636644 -107.17342705 103.39836716 -107.19659597 109.3905372 C-107.22639364 116.88870052 -107.27627188 124.38671376 -107.32617188 131.88476562 C-107.41500413 145.24604791 -107.47368021 158.6072517 -107.53515625 171.96875 C-128.98515625 171.96875 -150.43515625 171.96875 -172.53515625 171.96875 C-172.53515625 110.25875 -172.53515625 48.54875 -172.53515625 -15.03125 C-151.08515625 -15.03125 -129.63515625 -15.03125 -107.53515625 -15.03125 C-107.53515625 -6.12125 -107.53515625 2.78875 -107.53515625 11.96875 C-105.30717046 11.13648599 -105.30717046 11.13648599 -104.671875 8.70703125 C-99.92796466 -2.72073902 -86.65524399 -8.44659101 -76.06640625 -13.12109375 C-50.42319107 -22.73729944 -20.96973469 -16.80163643 0 0 Z " fill="#020202" transform="translate(418.53515625,243.03125)"/>
<path d="M0 0 C19.14 0 38.28 0 58 0 C58 61.71 58 123.42 58 187 C38.86 187 19.72 187 0 187 C0 125.29 0 63.58 0 0 Z " fill="#010101" transform="translate(152,228)"/>
<path d="M0 0 C1.05707153 0.01450195 1.05707153 0.01450195 2.13549805 0.02929688 C13.24283191 0.28531471 19.6239929 2.81998592 28.125 10.25 C34.42326963 17.55103528 36.49628018 23.75310302 36.625 33.3125 C36.65255371 34.44594849 36.65255371 34.44594849 36.68066406 35.60229492 C36.61734929 41.42535495 35.01014465 45.20672135 32.125 50.25 C31.465 50.25 30.805 50.25 30.125 50.25 C29.856875 50.848125 29.58875 51.44625 29.3125 52.0625 C25.59580395 58.90904535 18.278879 62.10459439 11.125 64.25 C7.47951242 64.81483129 3.93492496 64.91898752 0.25 64.875 C-0.71236572 64.86662109 -1.67473145 64.85824219 -2.66625977 64.84960938 C-11.63348984 64.56500749 -18.32389301 62.45873013 -25.00390625 56.28125 C-26.78329765 54.34955162 -28.34310374 52.38096184 -29.875 50.25 C-30.65875 49.21875 -31.4425 48.1875 -32.25 47.125 C-36.17052131 40.18869307 -36.03581646 30.03919704 -34.19140625 22.4296875 C-30.56126976 12.57861171 -24.30138398 6.72095745 -14.875 2.25 C-9.86555538 0.51347102 -5.26847228 -0.0761065 0 0 Z " fill="#040404" transform="translate(178.875,139.75)"/>
</svg>
