<?xml version="1.0" encoding="UTF-8"?>
<svg version="1.1" xmlns="http://www.w3.org/2000/svg" width="668" height="668">
<path d="M0 0 C2.01510298 1.83754585 4.01052935 3.69330448 6.00390625 5.5546875 C8.25201148 7.64461766 10.53479036 9.66889614 12.86328125 11.66796875 C18.87966212 16.89960429 24.40488788 22.56806835 29.58984375 28.62109375 C31.13011311 30.4170835 32.69126471 32.19518757 34.26171875 33.96484375 C75.44692406 80.65244214 101.69081464 139.78230986 111.61328125 200.98046875 C111.85884766 202.38546631 111.85884766 202.38546631 112.109375 203.81884766 C117.62767582 236.21606209 117.05641752 272.61894259 111.61328125 304.98046875 C111.45230957 306.00575684 111.29133789 307.03104492 111.12548828 308.08740234 C100.37858847 375.44909427 67.97201847 435.42418455 22.11328125 485.23046875 C21.2320459 486.19702393 21.2320459 486.19702393 20.33300781 487.18310547 C19.77581055 487.7813916 19.21861328 488.37967773 18.64453125 488.99609375 C18.15533203 489.52493164 17.66613281 490.05376953 17.16210938 490.59863281 C15.61328125 491.98046875 15.61328125 491.98046875 13.48632812 492.97949219 C11.26037932 493.89308809 11.26037932 493.89308809 10.61328125 496.98046875 C9.22265625 498.41796875 9.22265625 498.41796875 7.36328125 499.98046875 C6.27853516 500.89892578 6.27853516 500.89892578 5.171875 501.8359375 C4.32753906 502.54363281 3.48320313 503.25132812 2.61328125 503.98046875 C1.63488281 504.82222656 0.65648437 505.66398438 -0.3515625 506.53125 C-48.04177681 547.51675097 -105.42729311 573.56588726 -167.38671875 583.98046875 C-168.34835937 584.14562988 -169.31 584.31079102 -170.30078125 584.48095703 C-214.32258301 591.65229839 -261.38710586 588.06892521 -304.38671875 576.98046875 C-305.38928711 576.72426758 -306.39185547 576.46806641 -307.42480469 576.20410156 C-358.7432168 562.82471836 -406.45188946 536.46941828 -445.03125 500.125 C-447.38932136 497.87040993 -447.38932136 497.87040993 -450.38671875 495.98046875 C-450.38671875 495.32046875 -450.38671875 494.66046875 -450.38671875 493.98046875 C-450.95777344 493.73554687 -451.52882813 493.490625 -452.1171875 493.23828125 C-459.39734645 489.20349436 -465.02640204 481.25850506 -470.38671875 474.98046875 C-471.32606767 473.90428823 -472.26624198 472.82882785 -473.20703125 471.75390625 C-479.31998847 464.74078649 -485.06677602 457.62381504 -490.38671875 449.98046875 C-491.42699219 448.52640625 -491.42699219 448.52640625 -492.48828125 447.04296875 C-529.08293884 395.3190711 -553.30859525 331.30869722 -553.58984375 267.4453125 C-553.60036522 265.84223488 -553.60036522 265.84223488 -553.61109924 264.20677185 C-553.62850955 260.77712749 -553.6349514 257.34765568 -553.63671875 253.91796875 C-553.63739349 252.74752014 -553.63806824 251.57707153 -553.63876343 250.37115479 C-553.62345898 233.69445298 -553.28034848 217.44225991 -550.38671875 200.98046875 C-550.13728516 199.44422852 -550.13728516 199.44422852 -549.8828125 197.87695312 C-542.23534947 151.1141329 -524.45407489 104.99500697 -497.38671875 65.98046875 C-496.96825684 65.37203125 -496.54979492 64.76359375 -496.11865234 64.13671875 C-487.27583015 51.32963488 -477.78042572 39.21205232 -467.10546875 27.8828125 C-464.89087819 25.51867343 -462.74498834 23.12601943 -460.63671875 20.66796875 C-455.42999079 14.66699415 -449.77282698 9.16745317 -443.7421875 4 C-441.95993608 2.47193369 -440.1945844 0.92412719 -438.4375 -0.6328125 C-395.85749608 -38.15632185 -343.50095142 -62.55370893 -288.38671875 -75.01953125 C-287.67708984 -75.18291992 -286.96746094 -75.34630859 -286.23632812 -75.51464844 C-281.64772897 -76.54905909 -277.03698834 -77.32942728 -272.38671875 -78.01953125 C-271.53045898 -78.15488281 -270.67419922 -78.29023437 -269.79199219 -78.4296875 C-174.41181524 -92.93766919 -71.97650159 -64.79796587 0 0 Z " fill="#000000" transform="translate(553.38671875,81.01953125)"/>
<path d="M0 0 C2.01510298 1.83754585 4.01052935 3.69330448 6.00390625 5.5546875 C8.25201148 7.64461766 10.53479036 9.66889614 12.86328125 11.66796875 C18.87966212 16.89960429 24.40488788 22.56806835 29.58984375 28.62109375 C31.13011311 30.4170835 32.69126471 32.19518757 34.26171875 33.96484375 C75.44692406 80.65244214 101.69081464 139.78230986 111.61328125 200.98046875 C111.85884766 202.38546631 111.85884766 202.38546631 112.109375 203.81884766 C117.62767582 236.21606209 117.05641752 272.61894259 111.61328125 304.98046875 C111.45230957 306.00575684 111.29133789 307.03104492 111.12548828 308.08740234 C100.37858847 375.44909427 67.97201847 435.42418455 22.11328125 485.23046875 C21.2320459 486.19702393 21.2320459 486.19702393 20.33300781 487.18310547 C19.77581055 487.7813916 19.21861328 488.37967773 18.64453125 488.99609375 C18.15533203 489.52493164 17.66613281 490.05376953 17.16210938 490.59863281 C15.61328125 491.98046875 15.61328125 491.98046875 13.48632812 492.97949219 C11.26037932 493.89308809 11.26037932 493.89308809 10.61328125 496.98046875 C9.22265625 498.41796875 9.22265625 498.41796875 7.36328125 499.98046875 C6.27853516 500.89892578 6.27853516 500.89892578 5.171875 501.8359375 C4.32753906 502.54363281 3.48320313 503.25132812 2.61328125 503.98046875 C1.63488281 504.82222656 0.65648437 505.66398438 -0.3515625 506.53125 C-48.04177681 547.51675097 -105.42729311 573.56588726 -167.38671875 583.98046875 C-168.34835937 584.14562988 -169.31 584.31079102 -170.30078125 584.48095703 C-214.32258301 591.65229839 -261.38710586 588.06892521 -304.38671875 576.98046875 C-305.38928711 576.72426758 -306.39185547 576.46806641 -307.42480469 576.20410156 C-358.7432168 562.82471836 -406.45188946 536.46941828 -445.03125 500.125 C-447.38932136 497.87040993 -447.38932136 497.87040993 -450.38671875 495.98046875 C-450.38671875 495.32046875 -450.38671875 494.66046875 -450.38671875 493.98046875 C-450.95777344 493.73554687 -451.52882813 493.490625 -452.1171875 493.23828125 C-459.39734645 489.20349436 -465.02640204 481.25850506 -470.38671875 474.98046875 C-471.32606767 473.90428823 -472.26624198 472.82882785 -473.20703125 471.75390625 C-479.31998847 464.74078649 -485.06677602 457.62381504 -490.38671875 449.98046875 C-491.42699219 448.52640625 -491.42699219 448.52640625 -492.48828125 447.04296875 C-529.08293884 395.3190711 -553.30859525 331.30869722 -553.58984375 267.4453125 C-553.60036522 265.84223488 -553.60036522 265.84223488 -553.61109924 264.20677185 C-553.62850955 260.77712749 -553.6349514 257.34765568 -553.63671875 253.91796875 C-553.63739349 252.74752014 -553.63806824 251.57707153 -553.63876343 250.37115479 C-553.62345898 233.69445298 -553.28034848 217.44225991 -550.38671875 200.98046875 C-550.13728516 199.44422852 -550.13728516 199.44422852 -549.8828125 197.87695312 C-542.23534947 151.1141329 -524.45407489 104.99500697 -497.38671875 65.98046875 C-496.96825684 65.37203125 -496.54979492 64.76359375 -496.11865234 64.13671875 C-487.27583015 51.32963488 -477.78042572 39.21205232 -467.10546875 27.8828125 C-464.89087819 25.51867343 -462.74498834 23.12601943 -460.63671875 20.66796875 C-455.42999079 14.66699415 -449.77282698 9.16745317 -443.7421875 4 C-441.95993608 2.47193369 -440.1945844 0.92412719 -438.4375 -0.6328125 C-395.85749608 -38.15632185 -343.50095142 -62.55370893 -288.38671875 -75.01953125 C-287.67708984 -75.18291992 -286.96746094 -75.34630859 -286.23632812 -75.51464844 C-281.64772897 -76.54905909 -277.03698834 -77.32942728 -272.38671875 -78.01953125 C-271.53045898 -78.15488281 -270.67419922 -78.29023437 -269.79199219 -78.4296875 C-174.41181524 -92.93766919 -71.97650159 -64.79796587 0 0 Z M-256.38671875 -40.01953125 C-257.68770508 -39.86830811 -258.98869141 -39.71708496 -260.32910156 -39.5612793 C-278.88104389 -37.26858767 -296.61346717 -33.66067622 -314.38671875 -27.89453125 C-315.13518066 -27.65299316 -315.88364258 -27.41145508 -316.65478516 -27.16259766 C-320.41858389 -25.88822687 -323.27563306 -24.45459388 -326.38671875 -22.01953125 C-328.4296875 -21.4296875 -328.4296875 -21.4296875 -330.57421875 -21.08203125 C-335.54405587 -20.11613267 -339.85237381 -18.22774652 -344.38671875 -16.01953125 C-344.38671875 -15.35953125 -344.38671875 -14.69953125 -344.38671875 -14.01953125 C-345.33546875 -13.87515625 -346.28421875 -13.73078125 -347.26171875 -13.58203125 C-350.28016815 -13.19017726 -350.28016815 -13.19017726 -352.38671875 -12.01953125 C-352.38671875 -11.35953125 -352.38671875 -10.69953125 -352.38671875 -10.01953125 C-353.39605469 -9.88224609 -353.39605469 -9.88224609 -354.42578125 -9.7421875 C-374.00273665 -4.96417068 -393.47193843 12.05588674 -408.38671875 24.98046875 C-409.38316406 25.79515625 -410.37960937 26.60984375 -411.40625 27.44921875 C-419.06120991 33.75149954 -426.16900987 40.55349682 -433.19921875 47.54296875 C-434.07046387 48.4050293 -434.94170898 49.26708984 -435.83935547 50.15527344 C-441.77671336 56.12086682 -447.1719716 62.37744861 -452.38671875 68.98046875 C-452.96236572 69.70210205 -453.5380127 70.42373535 -454.13110352 71.16723633 C-461.75578852 80.78961453 -468.74323686 90.70925632 -475.23242188 101.12988281 C-476.27666141 102.80402319 -477.33849488 104.46715783 -478.40234375 106.12890625 C-478.9540625 107.00804687 -479.50578125 107.8871875 -480.07421875 108.79296875 C-480.53183594 109.52128906 -480.98945313 110.24960938 -481.4609375 111 C-482.66903361 113.22004691 -482.66903361 113.22004691 -482.38671875 116.98046875 C-483.04671875 116.98046875 -483.70671875 116.98046875 -484.38671875 116.98046875 C-485.04671875 119.62046875 -485.70671875 122.26046875 -486.38671875 124.98046875 C-487.04671875 124.98046875 -487.70671875 124.98046875 -488.38671875 124.98046875 C-488.38671875 126.30046875 -488.38671875 127.62046875 -488.38671875 128.98046875 C-489.04671875 128.98046875 -489.70671875 128.98046875 -490.38671875 128.98046875 C-491.7390535 131.97222607 -493.06690579 134.97422812 -494.38671875 137.98046875 C-494.76054687 138.82738281 -495.134375 139.67429688 -495.51953125 140.546875 C-498.27472072 146.96044519 -500.7223423 153.47300648 -503.07421875 160.04296875 C-503.37175049 160.85741455 -503.66928223 161.67186035 -503.97583008 162.51098633 C-505.80941361 167.71715608 -506.97158348 172.80080586 -507.87915039 178.2409668 C-508.5348929 181.78021002 -509.50215635 185.18852196 -510.49365234 188.64599609 C-521.29888109 226.76310628 -523.22453853 272.58959079 -513.09350586 311.1706543 C-511.93137432 315.79067913 -511.21598282 320.46870142 -510.48242188 325.171875 C-509.88228085 328.81295407 -509.09955275 331.73222579 -507.38671875 334.98046875 C-506.95573122 336.88532724 -506.58279111 338.80403457 -506.26171875 340.73046875 C-506.09414063 341.7153125 -505.9265625 342.70015625 -505.75390625 343.71484375 C-505.63273437 344.4625 -505.5115625 345.21015625 -505.38671875 345.98046875 C-504.72671875 345.98046875 -504.06671875 345.98046875 -503.38671875 345.98046875 C-503.11859375 347.25921875 -502.85046875 348.53796875 -502.57421875 349.85546875 C-500.91578281 357.27171398 -498.97681661 364.24903527 -495.38671875 370.98046875 C-494.64919439 372.67998141 -493.91242819 374.37987448 -493.19018555 376.0859375 C-483.05536288 399.9833012 -469.92330511 422.92318982 -453.38671875 442.98046875 C-452.95294922 443.50898437 -452.51917969 444.0375 -452.07226562 444.58203125 C-438.55585602 460.99620349 -424.16333059 476.84994312 -407.38671875 489.98046875 C-406.37738281 490.80675781 -405.36804688 491.63304687 -404.328125 492.484375 C-378.59390053 513.44960101 -378.59390053 513.44960101 -348.38671875 525.98046875 C-348.38671875 526.64046875 -348.38671875 527.30046875 -348.38671875 527.98046875 C-334.9277593 534.06419032 -321.54622727 539.85639067 -307.14038086 543.26538086 C-299.95350451 545.00302344 -292.92388973 547.22925017 -285.89550781 549.51879883 C-274.3275441 553.17532737 -262.57279713 554.3075202 -250.51171875 555.10546875 C-248.61933472 555.23175659 -248.61933472 555.23175659 -246.6887207 555.3605957 C-236.16873878 556.0158953 -225.70542495 556.26349539 -215.16845703 556.03808594 C-213.31284962 555.99965138 -211.45699649 555.97166857 -209.60107422 555.95410156 C-196.50460645 555.82220451 -183.75343941 554.51506314 -170.82421875 552.54296875 C-170.10526428 552.43369049 -169.38630981 552.32441223 -168.64556885 552.21182251 C-161.76369588 551.15248866 -155.07987862 549.95042506 -148.38671875 547.98046875 C-146.9755809 547.77211283 -145.55846464 547.59605785 -144.13671875 547.48046875 C-140.31569848 547.25080395 -140.31569848 547.25080395 -137.38671875 544.98046875 C-135.04643727 544.305333 -132.68932069 543.68772172 -130.32421875 543.10546875 C-124.86541365 541.72108428 -119.72449958 540.06023142 -114.53125 537.85546875 C-111.55299902 536.64029895 -108.48551846 535.83111965 -105.38671875 534.98046875 C-103.71039458 534.33847226 -102.03921362 533.68152718 -100.38671875 532.98046875 C-100.38671875 532.32046875 -100.38671875 531.66046875 -100.38671875 530.98046875 C-99.72800781 530.89796875 -99.06929688 530.81546875 -98.390625 530.73046875 C-94.36967631 529.72653878 -90.98090354 527.89763071 -87.32421875 525.98046875 C-85.91861393 525.24755539 -84.51111551 524.51825987 -83.1015625 523.79296875 C-82.484021 523.46941406 -81.86647949 523.14585937 -81.23022461 522.8125 C-79.30442339 521.94332631 -77.44714382 521.43119563 -75.38671875 520.98046875 C-75.38671875 520.32046875 -75.38671875 519.66046875 -75.38671875 518.98046875 C-74.54753906 518.74070312 -73.70835937 518.5009375 -72.84375 518.25390625 C-68.88308304 516.7949487 -65.61539999 514.87113671 -62.07421875 512.60546875 C-61.38416748 512.16775146 -60.69411621 511.73003418 -59.9831543 511.27905273 C-47.07445574 503.00730415 -34.89213669 494.11234662 -23.38671875 483.98046875 C-22.319375 483.06201172 -22.319375 483.06201172 -21.23046875 482.125 C-19.26473133 480.42914866 -17.32252754 478.71041727 -15.38671875 476.98046875 C-14.42765625 476.12582031 -13.46859375 475.27117188 -12.48046875 474.390625 C-7.39945137 469.82405072 -2.4783141 465.23408735 1.91796875 459.98828125 C3.85591941 457.69310466 5.88863092 455.50047312 7.92578125 453.29296875 C19.25745022 440.71077604 28.8062431 426.68259918 37.67578125 412.29296875 C38.16554443 411.50188721 38.65530762 410.71080566 39.15991211 409.89575195 C39.60987549 409.15671631 40.05983887 408.41768066 40.5234375 407.65625 C40.92699463 406.99536377 41.33055176 406.33447754 41.74633789 405.65356445 C42.76663836 403.99856931 42.76663836 403.99856931 42.61328125 401.98046875 C43.27328125 401.98046875 43.93328125 401.98046875 44.61328125 401.98046875 C45.2409058 400.75264013 45.8652419 399.52313039 46.48828125 398.29296875 C46.83632813 397.60847656 47.184375 396.92398437 47.54296875 396.21875 C48.27177308 394.69464459 48.94342923 393.14219178 49.5625 391.5703125 C50.73090848 388.6905548 52.11752103 385.98758001 53.55078125 383.23046875 C55.72856076 378.92236739 57.49370285 374.74387266 58.89453125 370.1328125 C59.68100104 367.77767741 60.6784789 365.59997873 61.73828125 363.35546875 C63.51048559 359.50667383 64.25483074 356.19226229 64.61328125 351.98046875 C65.27328125 351.98046875 65.93328125 351.98046875 66.61328125 351.98046875 C69.87418468 341.84191198 73.04439356 331.93992851 74.19140625 321.31640625 C74.53889979 318.56863326 75.00483414 315.93541449 75.5625 313.2265625 C76.62222939 308.06268442 77.43590465 302.88625188 78.17578125 297.66796875 C78.30146484 296.82041016 78.42714844 295.97285156 78.55664062 295.09960938 C80.27343969 283.09999286 80.80904096 271.15696685 80.80078125 259.04296875 C80.80050934 258.36181 80.80023743 257.68065125 80.79995728 256.97885132 C80.7811001 246.56320124 80.44921168 236.18818057 79.80078125 225.79296875 C79.73076904 224.59615479 79.66075684 223.39934082 79.58862305 222.16625977 C79.02752608 214.1951026 77.57941714 206.71633677 75.61328125 198.98046875 C75.11328125 196.73046875 74.61328125 194.48046875 74.11328125 192.23046875 C73.26844086 188.53705657 72.32922307 184.98347232 71.05078125 181.41796875 C69.88524573 178.13435346 69.30759214 175.05962761 68.86328125 171.60546875 C67.10922431 160.10828883 62.29642563 148.54127316 56.80517578 138.33520508 C55.64107383 136.03537647 54.70065841 133.74028585 53.78515625 131.33203125 C36.39951608 87.34421824 1.19793896 47.03721548 -36.38671875 18.98046875 C-36.95358398 18.55668945 -37.52044922 18.13291016 -38.10449219 17.69628906 C-46.68095972 11.33120962 -55.58416086 5.55294618 -64.70751953 0.00439453 C-66.22185045 -0.91899946 -67.72494734 -1.8607561 -69.2265625 -2.8046875 C-71.26420293 -4.18292672 -71.26420293 -4.18292672 -73.38671875 -4.01953125 C-73.38671875 -4.67953125 -73.38671875 -5.33953125 -73.38671875 -6.01953125 C-74.20462891 -6.36564453 -74.20462891 -6.36564453 -75.0390625 -6.71875 C-79.1351087 -8.49020246 -83.07860529 -10.35676567 -86.94921875 -12.58203125 C-90.34385555 -14.51173813 -93.68263543 -15.98138406 -97.359375 -17.27734375 C-99.56033157 -18.08308893 -101.68467529 -19.00035497 -103.82421875 -19.95703125 C-104.95150391 -20.45976563 -104.95150391 -20.45976563 -106.1015625 -20.97265625 C-107.62442591 -21.67030992 -109.13774474 -22.38918702 -110.640625 -23.12890625 C-115.98299308 -25.69324293 -120.46407105 -26.64349013 -126.38671875 -27.01953125 C-126.38671875 -27.67953125 -126.38671875 -28.33953125 -126.38671875 -29.01953125 C-139.45115056 -32.80481485 -152.38162935 -36.45830944 -165.91870117 -38.04418945 C-169.51054991 -38.46500603 -172.99478385 -38.9278661 -176.52148438 -39.75268555 C-187.22249501 -42.25269363 -197.49650275 -42.44572945 -208.4453125 -42.35571289 C-211.48595114 -42.33223025 -214.52570027 -42.335161 -217.56640625 -42.34179688 C-230.60891895 -42.32350425 -243.43522981 -41.53823142 -256.38671875 -40.01953125 Z " fill="#FCFCFC" transform="translate(553.38671875,81.01953125)"/>
<path d="M0 0 C3.63956422 2.30405471 6.08076051 5.16152102 8 9 C9.11601257 21.95176093 6.50131502 33.83930773 3.5625 46.375 C3.13585889 48.26007535 2.71071949 50.14549122 2.28710938 52.03125 C-0.78027356 65.56054711 -0.78027356 65.56054711 -2 68 C-2.29621316 69.59880114 -2.55477217 71.20461519 -2.796875 72.8125 C-4.32169431 82.26525442 -6.3174401 91.62404089 -8.25 101 C-8.65667888 102.97973181 -9.06333558 104.95946818 -9.4699707 106.93920898 C-12.56363559 121.97758135 -15.7200151 137.00104071 -19 152 C-19.26973633 153.23766113 -19.53947266 154.47532227 -19.81738281 155.75048828 C-20.64527402 159.54284116 -21.47785188 163.33412899 -22.3125 167.125 C-22.69474731 168.87115601 -22.69474731 168.87115601 -23.0847168 170.65258789 C-23.32101807 171.71856201 -23.55731934 172.78453613 -23.80078125 173.8828125 C-24.11269409 175.29651123 -24.11269409 175.29651123 -24.4309082 176.73876953 C-25 179 -25 179 -26 181 C-26.29495268 182.59097962 -26.55214012 184.18899538 -26.79296875 185.7890625 C-29.42979908 202.13594971 -33.1144849 218.33086428 -36.48907471 234.5380249 C-36.93906998 236.70639896 -37.38479045 238.87556716 -37.82763672 241.04541016 C-38.45334752 244.09624154 -39.09663099 247.14249653 -39.75 250.1875 C-39.91153564 250.9904248 -40.07307129 251.79334961 -40.23950195 252.62060547 C-41.73965368 259.39534097 -44.60889996 266.400341 -50 271 C-53.04743952 272.01581317 -55.4252821 272.30107792 -58.625 272.4375 C-59.60726563 272.49808594 -60.58953125 272.55867188 -61.6015625 272.62109375 C-66.61250283 271.70530121 -69.94936534 268.97979198 -74 266 C-75.4178467 264.99722325 -76.83581308 263.99461567 -78.25390625 262.9921875 C-79.69163824 261.95524871 -81.12779316 260.91612037 -82.5625 259.875 C-83.33698486 259.31441895 -84.11146973 258.75383789 -84.90942383 258.17626953 C-90.70858751 253.96654129 -96.45382753 249.68854308 -102.17675781 245.37597656 C-107.12850643 241.64561022 -112.10545104 237.95213193 -117.12329102 234.31103516 C-120.78719785 231.64751408 -124.40133465 228.93060863 -127.98828125 226.1640625 C-128.84059326 225.5148584 -129.69290527 224.8656543 -130.57104492 224.19677734 C-132.24585967 222.92013335 -133.91179205 221.63173323 -135.56762695 220.33056641 C-136.33163818 219.75226074 -137.09564941 219.17395508 -137.8828125 218.578125 C-138.55715332 218.05637695 -139.23149414 217.53462891 -139.92626953 216.99707031 C-142.70733584 215.65990587 -144.11398717 216.02683333 -147 217 C-149.08797021 218.82589395 -150.93625328 220.60442661 -152.8125 222.625 C-156.04503297 226.03448071 -159.29650862 229.30754088 -162.86328125 232.37109375 C-168.0478874 236.83889702 -172.76303874 241.74732212 -177.52734375 246.65429688 C-178.20667969 247.34458984 -178.88601563 248.03488281 -179.5859375 248.74609375 C-180.49931885 249.68473267 -180.49931885 249.68473267 -181.43115234 250.64233398 C-183 252 -183 252 -185 252 C-185.33 252.99 -185.66 253.98 -186 255 C-188.97 255.33 -191.94 255.66 -195 256 C-195.02699725 253.72923158 -195.04639453 251.45837179 -195.0625 249.1875 C-195.07410156 247.92292969 -195.08570313 246.65835938 -195.09765625 245.35546875 C-195 242 -195 242 -194 239 C-193.85908614 237.11150032 -193.7699371 235.2189638 -193.7097168 233.32617188 C-193.64780403 231.577901 -193.64780403 231.577901 -193.5846405 229.79431152 C-193.53995132 228.53187622 -193.49526215 227.26944092 -193.44921875 225.96875 C-193.29659739 222.59701691 -193.13812085 219.22568825 -192.97500896 215.85445404 C-192.80796575 212.33659128 -192.66120162 208.82020154 -192.55932617 205.29980469 C-191.78111905 179.33078351 -191.78111905 179.33078351 -185.71418762 173.15380859 C-183.28921326 171.15992923 -180.72067282 169.55834853 -178 168 C-176.66027171 166.88612461 -175.33996469 165.74726759 -174.0625 164.5625 C-173.44503906 164.02753906 -172.82757813 163.49257813 -172.19140625 162.94140625 C-169.25310694 160.33831399 -166.37826992 157.66911945 -163.5 155 C-159.41429121 151.21118064 -155.29606727 147.47828136 -151.08203125 143.83203125 C-147.86508207 141.00135739 -144.7202932 138.09232984 -141.56665039 135.19165039 C-136.74396118 130.75763061 -131.87650331 126.37474091 -127 122 C-125.33307353 120.50028872 -123.66640851 119.00028679 -122 117.5 C-115.33333333 111.5 -108.66666667 105.5 -102 99.5 C-101.17242187 98.75492187 -100.34484375 98.00984375 -99.4921875 97.2421875 C-97.85260121 95.76707382 -96.21200345 94.29308348 -94.5703125 92.8203125 C-89.9796939 88.69902232 -85.41552893 84.55126212 -80.875 80.375 C-77.01370268 76.82425628 -73.11558531 73.32608416 -69.14453125 69.8984375 C-67.38763007 68.34314793 -65.66408064 66.76502019 -63.94921875 65.1640625 C-63.41103516 64.66326172 -62.87285156 64.16246094 -62.31835938 63.64648438 C-61.24944157 62.64925447 -60.18418812 61.648079 -59.12304688 60.64257812 C-56.74686566 58.42876409 -55.12216544 57.04072181 -52 56 C-51.67 55.01 -51.34 54.02 -51 53 C-50.34 53 -49.68 53 -49 53 C-49.33 51.68 -49.66 50.36 -50 49 C-54.84774366 48.6569152 -57.41430154 49.42053821 -61.5 52.0078125 C-63.0612561 52.98282715 -63.0612561 52.98282715 -64.65405273 53.97753906 C-66.31029663 55.04053223 -66.31029663 55.04053223 -68 56.125 C-69.16211643 56.85759722 -70.32496882 57.58902819 -71.48852539 58.31933594 C-74.44157559 60.1773594 -77.38436433 62.05095228 -80.32403564 63.93005371 C-82.85601267 65.54648393 -85.39507622 67.15167966 -87.93359375 68.7578125 C-92.45137292 71.6211323 -96.95947576 74.49931424 -101.46533203 77.38134766 C-113.62122554 85.14416541 -125.85176117 92.78859261 -138.08618164 100.42675781 C-147.41187722 106.2513059 -156.70970518 112.11920745 -166 118 C-177.32671675 125.16985551 -188.67176739 132.30894624 -200.0480957 139.39990234 C-204.9398195 142.45135167 -209.82164017 145.51625644 -214.6796875 148.62109375 C-215.55882812 149.18183594 -216.43796875 149.74257813 -217.34375 150.3203125 C-218.99465347 151.37505638 -220.64321236 152.43348177 -222.2890625 153.49609375 C-223.01609375 153.96015625 -223.743125 154.42421875 -224.4921875 154.90234375 C-225.12495605 155.30960693 -225.75772461 155.71687012 -226.40966797 156.13647461 C-228 157 -228 157 -230 157 C-230 157.66 -230 158.32 -230 159 C-238.38742064 158.63612058 -245.31970825 156.39823808 -253.01000977 153.15136719 C-260.14929517 150.19574031 -267.45127163 147.83157798 -274.82202148 145.53564453 C-276.93268325 144.87650423 -279.03957247 144.20617228 -281.14648438 143.53515625 C-287.97244401 141.38620684 -294.6945074 139.56447816 -301.7722168 138.41699219 C-307.51015035 137.34297679 -312.43832871 134.48730599 -316.625 130.5 C-318.29208216 127.46894153 -318.88515371 126.37967781 -318 123 C-312.15934901 114.90146157 -303.28421082 111.57894745 -294 109 C-292.73726399 108.4011488 -291.48774191 107.77393756 -290.25 107.125 C-286.27398266 105.05686046 -282.20223844 103.55322144 -277.98046875 102.0625 C-272.61317649 100.14912714 -267.31363602 98.05668971 -262 96 C-259.83353425 95.16614448 -257.66686846 94.33280848 -255.5 93.5 C-254.4378125 93.09136719 -253.375625 92.68273437 -252.28125 92.26171875 C-250.01068243 91.38863146 -247.73983015 90.51628436 -245.46875 89.64453125 C-244.3240625 89.20496094 -243.179375 88.76539063 -242 88.3125 C-240.96875 87.91675781 -239.9375 87.52101563 -238.875 87.11328125 C-237.02360825 86.39637004 -235.17793647 85.66441459 -233.33984375 84.9140625 C-231 84 -231 84 -227.5625 83.0625 C-224.08782553 82.02619358 -221.23373556 80.62086993 -218 79 C-215.99000327 78.18121027 -213.96851715 77.39016196 -211.9375 76.625 C-207.32288922 74.87935866 -202.71998797 73.1091562 -198.125 71.3125 C-194.81175752 70.03175081 -191.61271908 68.89206925 -188.1875 67.9375 C-185.58581177 67.17229758 -183.6223277 66.36128345 -181.25 65.125 C-177.28392213 63.06203051 -173.2232734 61.56030428 -169.01171875 60.07421875 C-162.73277443 57.83464717 -156.50345051 55.43113132 -150.33203125 52.91015625 C-148 52 -148 52 -144.5625 51.0625 C-141.01848319 50.11732125 -141.01848319 50.11732125 -138 48.5 C-134.72847253 46.86423626 -131.51137783 46.00325081 -128 45 C-127.01 44.505 -126.02 44.01 -125 43.5 C-121.72847253 41.86423626 -118.51137783 41.00325081 -115 40 C-114.01 39.505 -113.02 39.01 -112 38.5 C-108.72847253 36.86423626 -105.51137783 36.00325081 -102 35 C-101.01 34.505 -100.02 34.01 -99 33.5 C-96 32 -96 32 -92.625 31.0625 C-89.82579302 30.24204278 -87.77914316 29.45150978 -85.25 28.125 C-81.16689094 25.99191378 -76.9563906 24.45071856 -72.61328125 22.9296875 C-70.85596383 22.30451329 -69.11193362 21.64079703 -67.3828125 20.94140625 C-65 20 -65 20 -61.5625 19.0625 C-58.08590407 18.02562051 -55.2358865 16.62191854 -52 15 C-46.45706024 12.70801141 -40.86704746 10.41683292 -35.0625 8.875 C-31.92188909 8.08383332 -31.92188909 8.08383332 -28.9375 6.4375 C-25.90255349 4.95231341 -23.30720533 4.53838226 -20 4 C-19.67 3.34 -19.34 2.68 -19 2 C-12.80434825 -0.53830667 -6.5953353 -1.10605002 0 0 Z " fill="#FCFCFC" transform="translate(475,219)"/>
<path d="M0 0 C0.66 0.33 1.32 0.66 2 1 C1.14535156 1.79664063 0.29070312 2.59328125 -0.58984375 3.4140625 C-1.70638528 4.48369052 -2.82223463 5.55404143 -3.9375 6.625 C-4.50146484 7.14707031 -5.06542969 7.66914063 -5.64648438 8.20703125 C-9.17451098 11.62942832 -10.76129434 13.87167841 -11 19 C-11.33 19 -11.66 19 -12 19 C-12.71619521 12.07677961 -12.71619521 12.07677961 -10.875 9.30859375 C-9.32032511 7.75796749 -7.714824 6.37108676 -6 5 C-5.14148438 4.26716797 -5.14148438 4.26716797 -4.265625 3.51953125 C-2.86107651 2.32566504 -1.43276253 1.15985538 0 0 Z " fill="#CACACA" transform="translate(297,387)"/>
</svg>
